<?xml version="1.0" encoding="UTF-8" standalone="no"?>
<svg
   xmlns:dc="http://purl.org/dc/elements/1.1/"
   xmlns:cc="http://creativecommons.org/ns#"
   xmlns:rdf="http://www.w3.org/1999/02/22-rdf-syntax-ns#"
   xmlns:svg="http://www.w3.org/2000/svg"
   xmlns="http://www.w3.org/2000/svg"
   viewBox="0 0 882.64001 882.64001"
   preserveAspectRatio="xMidYMid meet"
   width="100%"
   xml:space="preserve"
   id="svg2"
   version="1.1"><metadata
     id="metadata8"><rdf:RDF><cc:Work
         rdf:about=""><dc:format>image/svg+xml</dc:format><dc:type
           rdf:resource="http://purl.org/dc/dcmitype/StillImage" /></cc:Work></rdf:RDF></metadata><defs
     id="defs6"><clipPath
       id="clipPath20"
       clipPathUnits="userSpaceOnUse"><path
         id="path18"
         d="M 0,6619.75 V 0 h 6619.76 v 6619.75 z" /></clipPath></defs><g
     transform="matrix(1.3333333,0,0,-1.3333333,0,882.64)"
     id="g10"><g
       transform="scale(0.1)"
       id="g12"><g
         id="g14"><g
           clip-path="url(#clipPath20)"
           id="g16"><path
             id="path22"
             style="fill:#beeaf0;fill-opacity:1;fill-rule:evenodd;stroke:none"
             d="M 0,0 H 6619.76 V 6619.75 H 0 Z" /><path
             id="path24"
             style="fill:#a7e2e9;fill-opacity:1;fill-rule:evenodd;stroke:none"
             d="M 6619.76,3527.07 V 0 H 2659.71 v 1421.18 l 3505.87,2465.5 454.18,-359.61" /><path
             id="path26"
             style="fill:#a7e2e9;fill-opacity:1;fill-rule:evenodd;stroke:none"
             d="M 3943.6,0 H 0.0117188 V 3802.44 L 829.723,4385.93 3943.6,1920.44 V 0" /><path
             id="path28"
             style="fill:#89d6df;fill-opacity:1;fill-rule:evenodd;stroke:none"
             d="M 0.0117188,2252.37 3505.89,4717.86 6619.76,2252.37 V 0 H 0.0117188 v 2252.37" /><path
             id="path30"
             style="fill:#9cdeeb;fill-opacity:1;fill-rule:evenodd;stroke:none"
             d="m 2290.25,2449.22 c 71.62,0 129.69,-286.17 129.69,-357.81 0,-71.62 -58.07,-129.68 -129.69,-129.68 -71.62,0 -129.69,58.06 -129.69,129.68 0,71.64 58.07,357.81 129.69,357.81" /><path
             id="path32"
             style="fill:#9cdeeb;fill-opacity:1;fill-rule:evenodd;stroke:none"
             d="m 2290.25,2241.29 14.72,-188.49 14.69,-188.51 h -58.82 l 14.71,188.51 14.7,188.49" /><path
             id="path34"
             style="fill:#9cdeeb;fill-opacity:1;fill-rule:evenodd;stroke:none"
             d="m 2290.25,2449.22 c 71.62,0 129.69,-286.17 129.69,-357.81 0,-22.37 -5.67,-43.44 -15.66,-61.81 4.08,12.58 6.28,26 6.28,39.95 0,71.61 -58.06,357.8 -129.68,357.8 -21.86,0 -42.46,-26.71 -60.54,-65.8 20.17,50.7 44.17,87.67 69.91,87.67" /><path
             id="path36"
             style="fill:#9cdeeb;fill-opacity:1;fill-rule:evenodd;stroke:none"
             d="m 2960.24,2375.62 c 71.62,0 129.67,-286.17 129.67,-357.8 0,-71.62 -58.05,-129.68 -129.67,-129.68 -71.64,0 -129.69,58.06 -129.69,129.68 0,71.63 58.05,357.8 129.69,357.8" /><path
             id="path38"
             style="fill:#9cdeeb;fill-opacity:1;fill-rule:evenodd;stroke:none"
             d="m 2960.24,2167.7 14.7,-188.51 14.71,-188.5 h -58.84 l 14.72,188.5 14.71,188.51" /><path
             id="path40"
             style="fill:#9cdeeb;fill-opacity:1;fill-rule:evenodd;stroke:none"
             d="m 2960.24,2375.62 c 71.62,0 129.67,-286.17 129.67,-357.8 0,-22.37 -5.67,-43.45 -15.65,-61.82 4.07,12.58 6.29,26.01 6.29,39.94 0,71.63 -58.06,357.81 -129.68,357.81 -21.88,0 -42.48,-26.69 -60.54,-65.79 20.15,50.69 44.16,87.66 69.91,87.66" /><path
             id="path42"
             style="fill:#9cdeeb;fill-opacity:1;fill-rule:evenodd;stroke:none"
             d="m 4038.99,2308.2 c 71.64,0 129.69,-286.18 129.69,-357.81 0,-71.62 -58.05,-129.68 -129.69,-129.68 -71.62,0 -129.67,58.06 -129.67,129.68 0,71.63 58.05,357.81 129.67,357.81" /><path
             id="path44"
             style="fill:#9cdeeb;fill-opacity:1;fill-rule:evenodd;stroke:none"
             d="m 4038.99,2100.27 14.7,-188.51 14.71,-188.5 h -58.82 l 14.71,188.5 14.7,188.51" /><path
             id="path46"
             style="fill:#9cdeeb;fill-opacity:1;fill-rule:evenodd;stroke:none"
             d="m 4038.99,2308.2 c 71.64,0 129.69,-286.18 129.69,-357.81 0,-22.37 -5.67,-43.44 -15.65,-61.81 4.07,12.58 6.27,26 6.27,39.94 0,71.62 -58.06,357.82 -129.68,357.82 -21.87,0 -42.46,-26.71 -60.54,-65.81 20.18,50.7 44.16,87.67 69.91,87.67" /><path
             id="path48"
             style="fill:#64b0bd;fill-opacity:1;fill-rule:evenodd;stroke:none"
             d="m 2708.74,2762.16 c 116.42,0 210.8,-465.17 210.8,-581.58 0,-116.42 -94.38,-210.8 -210.8,-210.8 -116.43,0 -210.8,94.38 -210.8,210.8 0,116.41 94.37,581.58 210.8,581.58" /><path
             id="path50"
             style="fill:#64b0bd;fill-opacity:1;fill-rule:evenodd;stroke:none"
             d="m 2708.74,2424.2 23.9,-306.41 23.91,-306.39 h -95.62 l 23.9,306.39 23.91,306.41" /><path
             id="path52"
             style="fill:#64b0bd;fill-opacity:1;fill-rule:evenodd;stroke:none"
             d="m 2708.74,2762.16 c 116.42,0 210.8,-465.17 210.8,-581.58 0,-36.38 -9.22,-70.6 -25.45,-100.48 6.6,20.46 10.2,42.27 10.2,64.93 0,116.42 -94.37,581.59 -210.78,581.59 -35.56,0 -69.03,-43.43 -98.41,-106.97 32.81,82.42 71.8,142.51 113.64,142.51" /><path
             id="path54"
             style="fill:#64b0bd;fill-opacity:1;fill-rule:evenodd;stroke:none"
             d="m 3678.96,2665.56 c 116.43,0 210.79,-465.17 210.79,-581.58 0,-116.42 -94.36,-210.8 -210.79,-210.8 -116.41,0 -210.79,94.38 -210.79,210.8 0,116.41 94.38,581.58 210.79,581.58" /><path
             id="path56"
             style="fill:#64b0bd;fill-opacity:1;fill-rule:evenodd;stroke:none"
             d="m 3678.96,2327.6 23.91,-306.41 23.91,-306.4 h -95.63 l 23.91,306.4 23.9,306.41" /><path
             id="path58"
             style="fill:#64b0bd;fill-opacity:1;fill-rule:evenodd;stroke:none"
             d="m 3678.96,2665.56 c 116.43,0 210.79,-465.17 210.79,-581.58 0,-36.38 -9.2,-70.6 -25.42,-100.48 6.61,20.45 10.19,42.27 10.19,64.93 0,116.4 -94.37,581.57 -210.8,581.57 -35.54,0 -69.01,-43.39 -98.39,-106.95 32.79,82.4 71.79,142.51 113.63,142.51" /><path
             id="path60"
             style="fill:#64b0bd;fill-opacity:1;fill-rule:evenodd;stroke:none"
             d="m 3213.13,2856.66 c 128.37,0 232.46,-512.99 232.46,-641.37 0,-128.39 -104.09,-232.47 -232.46,-232.47 -128.38,0 -232.48,104.08 -232.48,232.47 0,128.38 104.1,641.37 232.48,641.37" /><path
             id="path62"
             style="fill:#64b0bd;fill-opacity:1;fill-rule:evenodd;stroke:none"
             d="m 3213.13,2483.94 26.37,-337.9 26.35,-337.89 H 3160.4 l 26.35,337.89 26.38,337.9" /><path
             id="path64"
             style="fill:#64b0bd;fill-opacity:1;fill-rule:evenodd;stroke:none"
             d="m 3213.13,2856.66 c 128.37,0 232.46,-512.99 232.46,-641.37 0,-40.12 -10.17,-77.88 -28.07,-110.82 7.29,22.56 11.26,46.62 11.26,71.6 0,128.4 -104.08,641.38 -232.47,641.38 -39.2,0 -76.11,-47.86 -108.51,-117.95 36.16,90.87 79.17,157.16 125.33,157.16" /><path
             id="path66"
             style="fill:#64b0bd;fill-opacity:1;fill-rule:evenodd;stroke:none"
             d="m 6349.94,2957.83 c 128.39,0 232.45,-512.99 232.45,-641.38 0,-128.37 -104.06,-232.46 -232.45,-232.46 -128.38,0 -232.46,104.09 -232.46,232.46 0,128.39 104.08,641.38 232.46,641.38" /><path
             id="path68"
             style="fill:#64b0bd;fill-opacity:1;fill-rule:evenodd;stroke:none"
             d="m 6349.94,2585.13 26.37,-337.91 26.36,-337.89 h -105.45 l 26.36,337.89 26.36,337.91" /><path
             id="path70"
             style="fill:#64b0bd;fill-opacity:1;fill-rule:evenodd;stroke:none"
             d="m 6349.94,2957.83 c 128.39,0 232.45,-512.99 232.45,-641.38 0,-40.11 -10.14,-77.86 -28.03,-110.8 7.29,22.56 11.24,46.61 11.24,71.6 0,128.37 -104.09,641.37 -232.46,641.37 -39.2,0 -76.13,-47.86 -108.5,-117.96 36.14,90.88 79.16,157.17 125.3,157.17" /><path
             id="path72"
             style="fill:#64b0bd;fill-opacity:1;fill-rule:evenodd;stroke:none"
             d="m 4928.3,2821.34 c 128.38,0 232.46,-512.99 232.46,-641.37 0,-128.39 -104.08,-232.47 -232.46,-232.47 -128.38,0 -232.46,104.08 -232.46,232.47 0,128.38 104.08,641.37 232.46,641.37" /><path
             id="path74"
             style="fill:#64b0bd;fill-opacity:1;fill-rule:evenodd;stroke:none"
             d="m 4928.3,2448.63 26.37,-337.91 26.36,-337.89 h -105.45 l 26.36,337.89 26.36,337.91" /><path
             id="path76"
             style="fill:#64b0bd;fill-opacity:1;fill-rule:evenodd;stroke:none"
             d="m 4928.3,2821.34 c 128.38,0 232.46,-512.99 232.46,-641.37 0,-40.13 -10.16,-77.87 -28.06,-110.81 7.31,22.55 11.26,46.61 11.26,71.6 0,128.39 -104.08,641.37 -232.46,641.37 -39.2,0 -76.12,-47.86 -108.52,-117.94 36.16,90.86 79.18,157.15 125.32,157.15" /><path
             id="path78"
             style="fill:#64b0bd;fill-opacity:1;fill-rule:evenodd;stroke:none"
             d="m 294.734,3010.56 c 128.387,0 232.457,-512.99 232.457,-641.36 0,-128.4 -104.07,-232.46 -232.457,-232.46 -128.382,0 -232.4527,104.06 -232.4527,232.46 0,128.37 104.0707,641.36 232.4527,641.36" /><path
             id="path80"
             style="fill:#64b0bd;fill-opacity:1;fill-rule:evenodd;stroke:none"
             d="m 294.734,2637.85 26.364,-337.91 26.363,-337.89 H 242.012 l 26.363,337.89 26.359,337.91" /><path
             id="path82"
             style="fill:#64b0bd;fill-opacity:1;fill-rule:evenodd;stroke:none"
             d="m 294.734,3010.56 c 128.387,0 232.457,-512.99 232.457,-641.36 0,-40.14 -10.148,-77.86 -28.046,-110.82 7.293,22.57 11.242,46.61 11.242,71.6 0,128.39 -104.074,641.37 -232.457,641.37 -39.196,0 -76.114,-47.86 -108.512,-117.95 36.164,90.88 79.172,157.16 125.316,157.16" /><path
             id="path84"
             style="fill:#adda1a;fill-opacity:1;fill-rule:evenodd;stroke:none"
             d="M 0.0117188,2046.08 6619.76,1579.31 V 0 H 0.0117188 v 2046.08" /><path
             id="path86"
             style="fill:#769a2a;fill-opacity:1;fill-rule:evenodd;stroke:none"
             d="m 4412.66,3202.7 c -189.04,0 -342.27,-755.31 -342.27,-944.34 0,-189.02 153.23,-342.26 342.27,-342.26 189.01,0 342.25,153.24 342.25,342.26 0,189.03 -153.24,944.34 -342.25,944.34" /><path
             id="path88"
             style="fill:#bc4c1f;fill-opacity:1;fill-rule:evenodd;stroke:none"
             d="m 4412.66,2653.92 -38.82,-497.5 -38.83,-497.51 h 155.27 l -38.82,497.51 -38.8,497.5" /><path
             id="path90"
             style="fill:#9fcc1f;fill-opacity:1;fill-rule:evenodd;stroke:none"
             d="m 4412.66,3202.7 c -189.04,0 -342.27,-755.31 -342.27,-944.34 0,-59.07 14.96,-114.65 41.3,-163.14 -10.74,33.22 -16.56,68.64 -16.56,105.42 0,189.02 153.24,944.33 342.25,944.33 57.73,0 112.09,-70.48 159.79,-173.66 -53.25,133.8 -116.56,231.39 -184.51,231.39" /><path
             id="path92"
             style="fill:#d1e857;fill-opacity:1;fill-rule:evenodd;stroke:none"
             d="M 0.0117188,2066.81 6619.76,1600.04 V 1288.86 L 0.0117188,1992.9 v 73.91" /><path
             id="path94"
             style="fill:#769a2a;fill-opacity:1;fill-rule:evenodd;stroke:none"
             d="m 775.742,3213.76 c 233.448,0 422.708,-932.82 422.708,-1166.3 0,-233.45 -189.26,-422.71 -422.708,-422.71 -233.461,0 -422.719,189.26 -422.719,422.71 0,233.48 189.258,1166.3 422.719,1166.3" /><path
             id="path96"
             style="fill:#bc4c1f;fill-opacity:1;fill-rule:evenodd;stroke:none"
             d="m 775.742,2536.01 47.93,-614.46 47.945,-614.42 H 679.859 l 47.934,614.42 47.949,614.46" /><path
             id="path98"
             style="fill:#9fcc1f;fill-opacity:1;fill-rule:evenodd;stroke:none"
             d="m 775.742,3213.76 c 233.448,0 422.708,-932.82 422.708,-1166.3 0,-72.95 -18.48,-141.57 -51.01,-201.47 13.26,41 20.45,84.74 20.45,130.18 0,233.45 -189.253,1166.28 -422.702,1166.28 -71.282,0 -138.426,-87.02 -197.329,-214.47 65.758,165.24 143.957,285.78 227.883,285.78" /><path
             id="path100"
             style="fill:#97c222;fill-opacity:1;fill-rule:evenodd;stroke:none"
             d="M 6619.76,1996.84 0,1239.65 V 0 h 6619.76 v 1996.84" /><path
             id="path102"
             style="fill:#bce034;fill-opacity:1;fill-rule:evenodd;stroke:none"
             d="M 6619.76,2017.6 0,1260.39 v -342.3 l 6619.76,1025.59 v 73.92" /><path
             id="path104"
             style="fill:#526926;fill-opacity:1;fill-rule:evenodd;stroke:none"
             d="m 1509.29,3816.71 c 320.37,0 580.09,-1280.14 580.09,-1600.52 0,-320.38 -259.72,-580.11 -580.09,-580.11 -320.38,0 -580.102,259.73 -580.102,580.11 0,320.38 259.722,1600.52 580.102,1600.52" /><path
             id="path106"
             style="fill:#bc4c1f;fill-opacity:1;fill-rule:evenodd;stroke:none"
             d="m 1509.29,2886.61 65.79,-843.2 65.78,-843.23 h -263.15 l 65.79,843.23 65.79,843.2" /><path
             id="path108"
             style="fill:#769a2a;fill-opacity:1;fill-rule:evenodd;stroke:none"
             d="m 1509.29,3816.71 c 320.37,0 580.09,-1280.14 580.09,-1600.52 0,-100.12 -25.36,-194.31 -70,-276.5 18.2,56.28 28.07,116.31 28.07,178.65 0,320.38 -259.71,1600.52 -580.1,1600.52 -97.81,0 -189.95,-119.43 -270.78,-294.33 90.24,226.78 197.56,392.18 312.72,392.18" /><path
             id="path110"
             style="fill:#526926;fill-opacity:1;fill-rule:evenodd;stroke:none"
             d="m 5654.45,3837.46 c -369.77,0 -669.54,-1477.53 -669.54,-1847.29 0,-369.79 299.77,-669.56 669.54,-669.56 369.79,0 669.55,299.77 669.55,669.56 0,369.76 -299.76,1847.29 -669.55,1847.29" /><path
             id="path112"
             style="fill:#bc4c1f;fill-opacity:1;fill-rule:evenodd;stroke:none"
             d="m 5654.45,2763.96 -75.93,-973.23 -75.92,-973.218 h 303.72 l -75.92,973.218 -75.95,973.23" /><path
             id="path114"
             style="fill:#769a2a;fill-opacity:1;fill-rule:evenodd;stroke:none"
             d="m 5654.45,3837.46 c -369.77,0 -669.54,-1477.53 -669.54,-1847.29 0,-115.57 29.27,-224.27 80.81,-319.16 -21.01,64.97 -32.41,134.25 -32.41,206.21 0,369.78 299.77,1847.3 669.55,1847.3 112.89,0 219.24,-137.85 312.55,-339.72 -104.17,261.75 -228.04,452.66 -360.96,452.66" /><path
             id="path116"
             style="fill:#87b027;fill-opacity:1;fill-rule:evenodd;stroke:none"
             d="M 0.0117188,1623.44 6619.76,866.23 V 0 H 0.0117188 v 1623.44" /><path
             id="path118"
             style="fill:#9fcc1f;fill-opacity:1;fill-rule:evenodd;stroke:none"
             d="M 0.0117188,1644.19 6619.76,886.961 V 575.781 L 0.0117188,1570.27 v 73.92" /><path
             id="path120"
             style="fill:#dbf3f8;fill-opacity:1;fill-rule:evenodd;stroke:none"
             d="M 0.0117188,6245.84 6619.76,5808.34 V 5384.91 L 0.0117188,6038.39 v 207.45" /><path
             id="path122"
             style="fill:#dbf3f8;fill-opacity:1;fill-rule:evenodd;stroke:none"
             d="M 0.0117188,5322.67 3201.83,5125.59 0.0117188,4990.75 v 331.92" /><path
             id="path124"
             style="fill:#dbf3f8;fill-opacity:1;fill-rule:evenodd;stroke:none"
             d="M 6619.76,5187.83 0,5934.67 v -477.15 l 6619.76,-404.53 v 134.84" /><path
             id="path126"
             style="fill:#dbf3f8;fill-opacity:1;fill-rule:evenodd;stroke:none"
             d="m 6619.76,4959.65 -2090.23,113.13 2090.23,-445.07 v 331.94" /><path
             id="path128"
             style="fill:#769a2a;fill-opacity:1;fill-rule:evenodd;stroke:none"
             d="M 0,619.832 4332.43,0 H 0.0117188 L 0,619.832" /><path
             id="path130"
             style="fill:#100f0d;fill-opacity:1;fill-rule:nonzero;stroke:none"
             d="m 2348.46,293.922 c 0,7.316 -1.06,13.629 -3.21,18.808 -2.12,5.258 -5.06,9.29 -8.9,12.129 -3.77,2.813 -7.94,4.204 -12.57,4.204 -7.26,0 -13.43,-3.043 -18.49,-9.012 -4.99,-6.121 -7.55,-14.871 -7.55,-26.582 0,-11.039 2.56,-19.571 7.5,-25.637 5.01,-6.133 11.18,-9.242 18.54,-9.242 4.43,0 8.53,1.359 12.28,4.058 3.69,2.684 6.73,6.692 8.99,11.973 2.3,5.379 3.41,11.777 3.41,19.301 z m -51.93,40.34 v -3.371 c 4.96,6.379 10.16,11.14 15.51,14.14 5.39,3.039 11.5,4.508 18.28,4.508 8.13,0 15.64,-2.219 22.51,-6.57 6.85,-4.41 12.3,-10.789 16.29,-19.27 3.94,-8.41 5.97,-18.429 5.97,-29.969 0,-8.48 -1.18,-16.359 -3.48,-23.378 -2.26,-7.192 -5.42,-13.204 -9.42,-18 -4.05,-4.883 -8.81,-8.582 -14.26,-11.141 -5.46,-2.629 -11.36,-3.879 -17.61,-3.879 -7.61,0 -13.95,1.539 -19.1,4.707 -5.2,3.172 -10.06,7.793 -14.69,13.953 V 214.5 c 0,-12.18 -4.26,-18.211 -12.74,-18.211 -4.96,0 -8.28,1.5 -9.86,4.641 -1.64,3.172 -2.42,7.769 -2.42,13.769 v 119.364 c 0,5.226 1.07,9.238 3.28,11.796 2.23,2.582 5.25,3.93 9,3.93 3.8,0 6.84,-1.348 9.18,-4.039 2.37,-2.691 3.56,-6.551 3.56,-11.488" /><path
             id="path132"
             style="fill:#100f0d;fill-opacity:1;fill-rule:nonzero;stroke:none"
             d="m 2465.21,252.922 v 3.5 c -3.22,-4.172 -6.54,-7.684 -10.04,-10.5 -3.49,-2.871 -7.32,-4.93 -11.41,-6.332 -4.19,-1.399 -8.92,-2.078 -14.19,-2.078 -6.41,0 -12.14,1.398 -17.23,4.16 -5.12,2.73 -9.01,6.57 -11.81,11.418 -3.31,5.89 -4.95,14.32 -4.95,25.269 v 54.821 c 0,5.539 1.2,9.679 3.6,12.429 2.42,2.68 5.54,4.082 9.5,4.082 4.04,0 7.27,-1.402 9.71,-4.179 2.44,-2.742 3.67,-6.883 3.67,-12.332 v -44.258 c 0,-6.422 0.52,-11.801 1.53,-16.121 1.05,-4.403 2.88,-7.813 5.68,-10.27 2.59,-2.449 6.26,-3.652 10.82,-3.652 4.55,0 8.77,1.402 12.62,4.16 4,2.731 6.89,6.32 8.71,10.77 1.5,3.941 2.21,12.5 2.21,25.793 v 33.578 c 0,5.449 1.25,9.59 3.7,12.332 2.4,2.777 5.64,4.179 9.6,4.179 3.93,0 7.1,-1.402 9.52,-4.082 2.35,-2.75 3.55,-6.89 3.55,-12.429 v -80.09 c 0,-5.27 -1.09,-9.211 -3.47,-11.84 -2.26,-2.629 -5.2,-3.918 -8.85,-3.918 -3.61,0 -6.6,1.406 -8.94,4.059 -2.37,2.781 -3.53,6.558 -3.53,11.531" /><path
             id="path134"
             style="fill:#100f0d;fill-opacity:1;fill-rule:nonzero;stroke:none"
             d="m 2542.09,292.852 c 0,-11.012 2.34,-19.43 7.16,-25.352 4.87,-5.859 11.17,-8.91 19.01,-8.91 6.67,0 12.41,3.051 17.23,9.082 4.86,6.098 7.26,14.699 7.26,25.949 0,7.418 -1.01,13.68 -3.03,18.918 -2.01,5.293 -4.88,9.34 -8.52,12.203 -3.75,2.86 -8.04,4.321 -12.94,4.321 -5.11,0 -9.52,-1.461 -13.48,-4.321 -3.99,-2.863 -7.07,-7.023 -9.34,-12.492 -2.25,-5.41 -3.35,-11.84 -3.35,-19.398 z m -1.3,82.218 v -42.257 c 4.94,5.429 10.04,9.519 15.2,12.449 5.19,2.89 11.64,4.277 19.23,4.277 8.83,0 16.52,-2.219 23.16,-6.48 6.63,-4.43 11.79,-10.739 15.45,-18.957 3.67,-8.282 5.49,-18.102 5.49,-29.454 0,-8.378 -1.01,-16.097 -3.04,-23.046 -2.07,-6.993 -5,-13.063 -8.9,-18.223 -3.88,-5.078 -8.61,-9.02 -14.09,-11.91 -5.58,-2.731 -11.69,-4.137 -18.36,-4.137 -4.01,0 -7.88,0.457 -11.48,1.5 -3.61,1 -6.7,2.289 -9.21,4.02 -2.49,1.55 -4.66,3.328 -6.44,5.058 -1.77,1.801 -4.07,4.371 -7.01,7.899 v -2.719 c 0,-5.231 -1.23,-9.129 -3.62,-11.84 -2.4,-2.629 -5.44,-3.918 -9.09,-3.918 -3.81,0 -6.74,1.289 -9.01,3.918 -2.22,2.781 -3.32,6.66 -3.32,11.84 v 120.769 c 0,5.582 1.06,9.762 3.22,12.653 2.22,2.89 5.2,4.34 9.11,4.34 4.03,0 7.21,-1.411 9.39,-4.161 2.21,-2.722 3.32,-6.589 3.32,-11.621" /><path
             id="path136"
             style="fill:#100f0d;fill-opacity:1;fill-rule:nonzero;stroke:none"
             d="m 2637.99,254.129 v 119.883 c 0,5.59 1.19,9.769 3.52,12.59 2.4,2.8 5.59,4.25 9.57,4.25 4.05,0 7.27,-1.411 9.73,-4.25 2.4,-2.731 3.71,-6.981 3.71,-12.59 V 254.129 c 0,-5.649 -1.31,-9.879 -3.77,-12.66 -2.51,-2.731 -5.72,-4.137 -9.67,-4.137 -3.85,0 -6.97,1.449 -9.44,4.34 -2.46,2.906 -3.65,7 -3.65,12.457" /><path
             id="path138"
             style="fill:#100f0d;fill-opacity:1;fill-rule:nonzero;stroke:none"
             d="m 2718.36,333.941 v -79.812 c 0,-5.59 -1.29,-9.77 -3.76,-12.617 -2.54,-2.731 -5.77,-4.18 -9.62,-4.18 -3.91,0 -7.03,1.449 -9.48,4.27 -2.41,2.976 -3.66,7.07 -3.66,12.527 v 79.051 c 0,5.449 1.25,9.59 3.66,12.332 2.45,2.777 5.57,4.179 9.48,4.179 3.86,0 7.08,-1.402 9.62,-4.179 2.47,-2.742 3.76,-6.59 3.76,-11.571 z m -13.15,28.668 c -3.64,0 -6.77,1.141 -9.46,3.543 -2.55,2.36 -3.91,5.778 -3.91,10.067 0,3.883 1.36,7.121 4.06,9.679 2.63,2.543 5.76,3.75 9.31,3.75 3.44,0 6.51,-1.128 9.16,-3.418 2.65,-2.261 3.99,-5.691 3.99,-10.011 0,-4.289 -1.34,-7.617 -3.9,-9.981 -2.59,-2.406 -5.68,-3.629 -9.25,-3.629" /><path
             id="path140"
             style="fill:#100f0d;fill-opacity:1;fill-rule:nonzero;stroke:none"
             d="m 2840.6,271.48 c 0,-3.39 -0.96,-7.07 -2.89,-10.96 -2.02,-3.938 -5.04,-7.661 -9.1,-11.211 -4.03,-3.528 -9.13,-6.387 -15.25,-8.52 -6.15,-2.207 -13.07,-3.277 -20.74,-3.277 -16.4,0 -29.16,4.988 -38.36,14.929 -9.18,9.961 -13.76,23.289 -13.76,40.039 0,11.301 2.07,21.418 6.26,30.059 4.19,8.672 10.34,15.461 18.24,20.231 7.93,4.75 17.47,7.109 28.53,7.109 6.89,0 13.2,-1.039 18.92,-3.047 5.71,-2.152 10.59,-4.871 14.52,-8.152 4.02,-3.328 7.03,-6.84 9.15,-10.578 2.12,-3.77 3.15,-7.223 3.15,-10.5 0,-3.293 -1.22,-6.051 -3.53,-8.391 -2.41,-2.301 -5.2,-3.441 -8.61,-3.441 -2.21,0 -4.05,0.652 -5.48,1.82 -1.45,1.16 -3.1,2.98 -4.92,5.672 -3.23,5.097 -6.6,8.988 -10.17,11.597 -3.49,2.543 -7.98,3.903 -13.36,3.903 -7.9,0 -14.21,-3.282 -18.96,-9.614 -4.81,-6.457 -7.18,-15.128 -7.18,-26.25 0,-5.148 0.65,-10.007 1.84,-14.347 1.24,-4.371 3.03,-8.02 5.34,-11.141 2.36,-3.078 5.1,-5.398 8.47,-6.93 3.26,-1.64 6.92,-2.449 10.82,-2.449 5.34,0 9.87,1.289 13.68,3.821 3.74,2.628 7.11,6.546 10,11.757 1.64,3.18 3.37,5.582 5.26,7.36 1.87,1.793 4.22,2.551 6.92,2.551 3.22,0 5.92,-1.219 8.03,-3.758 2.13,-2.641 3.18,-5.321 3.18,-8.282" /><path
             id="path142"
             style="fill:#100f0d;fill-opacity:1;fill-rule:nonzero;stroke:none"
             d="m 2884.24,293.621 c 0,-7.441 1.17,-13.82 3.38,-19.109 2.22,-5.282 5.24,-9.18 9.1,-11.864 3.93,-2.699 8.16,-4.058 12.69,-4.058 4.74,0 8.96,1.289 12.81,3.812 3.85,2.539 6.89,6.438 9.24,11.688 2.28,5.191 3.42,11.738 3.42,19.531 0,7.418 -1.14,13.731 -3.42,19.07 -2.35,5.297 -5.43,9.329 -9.33,12.168 -3.91,2.813 -8.19,4.204 -12.85,4.204 -4.82,0 -9.15,-1.461 -13,-4.321 -3.8,-2.863 -6.77,-7.023 -8.85,-12.383 -2.12,-5.41 -3.19,-11.558 -3.19,-18.738 z m 52.08,-40.531 v 2.719 c -3.57,-4.289 -7.07,-7.707 -10.53,-10.348 -3.42,-2.699 -7.18,-4.711 -11.28,-6.121 -3.98,-1.32 -8.42,-2.008 -13.17,-2.008 -6.37,0 -12.28,1.406 -17.62,4.137 -5.39,2.89 -10.11,6.832 -13.99,12.031 -3.95,5.18 -6.99,11.309 -9.02,18.32 -2.06,7.032 -3.06,14.578 -3.06,22.828 0,17.274 4.03,30.813 12.11,40.422 8.14,9.68 18.78,14.469 31.91,14.469 7.65,0 14.12,-1.387 19.36,-4.187 5.2,-2.633 10.33,-6.872 15.29,-12.539 v 40.808 c 0,5.668 1.1,9.961 3.26,12.848 2.19,2.933 5.21,4.383 9.25,4.383 4,0 7.07,-1.36 9.3,-4.012 2.16,-2.649 3.26,-6.59 3.26,-11.77 V 253.09 c 0,-5.27 -1.18,-9.211 -3.51,-11.84 -2.36,-2.629 -5.34,-3.918 -9.05,-3.918 -3.56,0 -6.57,1.289 -8.99,4.059 -2.3,2.711 -3.52,6.558 -3.52,11.699" /><path
             id="path144"
             style="fill:#100f0d;fill-opacity:1;fill-rule:nonzero;stroke:none"
             d="m 3060.57,293.449 c 0,11.211 -2.39,20.031 -7.16,26.313 -4.76,6.258 -11.17,9.457 -19.15,9.457 -5.2,0 -9.71,-1.469 -13.72,-4.25 -3.89,-2.84 -6.96,-6.981 -9.08,-12.43 -2.19,-5.43 -3.22,-11.777 -3.22,-19.09 0,-7.23 1.03,-13.539 3.16,-18.918 2.13,-5.41 5.1,-9.543 9.06,-12.41 3.89,-2.851 8.51,-4.301 13.8,-4.301 7.98,0 14.39,3.141 19.15,9.442 4.77,6.297 7.16,15.039 7.16,26.187 z m 26.58,0 c 0,-8.199 -1.25,-15.808 -3.71,-22.84 -2.46,-6.871 -6.01,-12.828 -10.62,-17.839 -4.68,-5.059 -10.26,-8.739 -16.71,-11.52 -6.51,-2.629 -13.82,-3.918 -21.85,-3.918 -8.04,0 -15.2,1.289 -21.67,3.988 -6.39,2.711 -11.94,6.59 -16.65,11.602 -4.66,5.039 -8.23,10.969 -10.66,17.797 -2.41,6.883 -3.62,14.429 -3.62,22.75 0,8.383 1.25,16.043 3.66,22.961 2.5,6.992 6,12.922 10.58,17.871 4.63,4.898 10.16,8.711 16.69,11.359 6.55,2.699 13.77,4.031 21.67,4.031 8.03,0 15.3,-1.332 21.85,-4.082 6.49,-2.64 12.09,-6.539 16.74,-11.546 4.67,-5 8.23,-10.934 10.63,-17.852 2.47,-6.852 3.67,-14.492 3.67,-22.762" /><path
             id="path146"
             style="fill:#100f0d;fill-opacity:1;fill-rule:nonzero;stroke:none"
             d="m 3199.05,316.301 c -1.97,-4.711 -2.93,-12.942 -2.93,-24.852 v -36.687 c 0,-5.813 -1.26,-10.184 -3.81,-13.09 -2.51,-2.891 -5.88,-4.34 -10.01,-4.34 -4,0 -7.22,1.449 -9.68,4.34 -2.5,2.906 -3.75,7.277 -3.75,13.09 v 44.07 c 0,6.938 -0.25,12.297 -0.72,16.227 -0.44,3.781 -1.7,6.961 -3.67,9.453 -1.98,2.468 -5.19,3.718 -9.48,3.718 -8.65,0 -14.34,-3.082 -17.13,-9.39 -2.74,-6.149 -4.09,-15.102 -4.09,-26.711 v -37.367 c 0,-5.813 -1.25,-10.184 -3.74,-13 -2.5,-2.981 -5.78,-4.43 -9.83,-4.43 -4.05,0 -7.35,1.449 -9.87,4.43 -2.6,2.816 -3.8,7.187 -3.8,12.937 v 79.16 c 0,5.211 1.11,9.153 3.37,11.84 2.35,2.699 5.33,4.09 9.1,4.09 3.61,0 6.64,-1.289 9.1,-3.797 2.4,-2.543 3.6,-6.023 3.6,-10.48 v -2.68 c 4.59,5.797 9.53,9.981 14.73,12.68 5.24,2.687 11.11,4.027 17.47,4.027 6.69,0 12.36,-1.387 17.18,-4.187 4.81,-2.672 8.71,-6.911 11.79,-12.52 4.48,5.648 9.29,9.938 14.39,12.637 5.14,2.73 10.78,4.07 16.96,4.07 7.3,0 13.52,-1.387 18.74,-4.418 5.26,-2.98 9.15,-7.211 11.76,-12.801 2.26,-5.011 3.41,-12.871 3.41,-23.57 v -53.988 c 0,-5.813 -1.29,-10.184 -3.75,-13.09 -2.61,-2.891 -5.88,-4.34 -10.05,-4.34 -4.01,0 -7.28,1.449 -9.83,4.43 -2.59,2.816 -3.89,7.187 -3.89,13 v 46.476 c 0,5.961 -0.2,10.731 -0.68,14.301 -0.52,3.609 -1.81,6.59 -3.95,9.039 -2.1,2.402 -5.37,3.652 -9.71,3.652 -3.48,0 -6.81,-1.089 -9.87,-3.21 -3.23,-2.239 -5.65,-5.059 -7.36,-8.719 v 0" /><path
             id="path148"
             style="fill:#100f0d;fill-opacity:1;fill-rule:nonzero;stroke:none"
             d="m 3349.1,292.898 c -3.94,-1.488 -9.56,-3.066 -16.98,-4.726 -7.41,-1.672 -12.57,-2.871 -15.4,-3.633 -2.83,-0.809 -5.53,-2.32 -8.14,-4.539 -2.6,-2.301 -3.91,-5.469 -3.91,-9.52 0,-4.218 1.56,-7.808 4.59,-10.73 3.03,-2.93 7.03,-4.418 11.92,-4.418 5.26,0 10.11,1.25 14.54,3.648 4.44,2.352 7.72,5.5 9.73,9.29 2.4,4.14 3.65,11.011 3.65,20.679 z m 1.69,-40.039 c -6.4,-5.187 -12.61,-9.089 -18.58,-11.648 -5.98,-2.629 -12.7,-3.879 -20.12,-3.879 -6.84,0 -12.75,1.406 -17.9,4.137 -5.19,2.781 -9.14,6.633 -11.94,11.453 -2.74,4.769 -4.19,9.957 -4.19,15.578 0,7.559 2.37,13.961 6.94,19.359 4.58,5.301 10.86,8.852 18.86,10.731 1.72,0.39 5.93,1.25 12.57,2.648 6.7,1.481 12.38,2.782 17.18,3.942 4.71,1.16 9.92,2.582 15.49,4.269 -0.39,7.34 -1.77,12.68 -4.24,16.133 -2.49,3.367 -7.69,5.059 -15.48,5.059 -6.75,0 -11.8,-0.961 -15.26,-2.942 -3.38,-1.937 -6.26,-4.918 -8.71,-8.859 -2.41,-3.899 -4.1,-6.438 -5.1,-7.711 -1.07,-1.289 -3.18,-1.809 -6.46,-1.809 -3.02,0 -5.57,0.961 -7.7,2.93 -2.2,1.969 -3.31,4.539 -3.31,7.711 0,4.859 1.68,9.57 4.99,14.102 3.28,4.617 8.44,8.378 15.41,11.406 6.96,2.972 15.7,4.41 26.14,4.41 11.66,0 20.79,-1.438 27.46,-4.27 6.68,-2.839 11.31,-7.367 14.06,-13.609 2.79,-6.238 4.18,-14.449 4.18,-24.699 0,-6.5 0,-12.039 -0.04,-16.551 -0.08,-4.531 -0.08,-9.559 -0.19,-15.129 0,-5.141 0.87,-10.633 2.51,-16.199 1.6,-5.641 2.44,-9.274 2.44,-10.883 0,-2.848 -1.28,-5.43 -3.85,-7.75 -2.49,-2.309 -5.38,-3.457 -8.65,-3.457 -2.69,0 -5.35,1.289 -8.08,3.918 -2.6,2.711 -5.45,6.57 -8.43,11.609" /><path
             id="path150"
             style="fill:#100f0d;fill-opacity:1;fill-rule:nonzero;stroke:none"
             d="m 3428.52,333.941 v -79.812 c 0,-5.59 -1.31,-9.77 -3.81,-12.617 -2.5,-2.731 -5.75,-4.18 -9.57,-4.18 -3.9,0 -7.07,1.449 -9.5,4.27 -2.46,2.976 -3.64,7.07 -3.64,12.527 v 79.051 c 0,5.449 1.19,9.59 3.64,12.332 2.43,2.777 5.6,4.179 9.5,4.179 3.82,0 7.07,-1.402 9.57,-4.179 2.5,-2.742 3.81,-6.59 3.81,-11.571 z m -13.15,28.668 c -3.65,0 -6.78,1.141 -9.43,3.543 -2.6,2.36 -3.94,5.778 -3.94,10.067 0,3.883 1.34,7.121 4.09,9.679 2.64,2.543 5.77,3.75 9.28,3.75 3.42,0 6.51,-1.128 9.14,-3.418 2.64,-2.261 4.01,-5.691 4.01,-10.011 0,-4.289 -1.31,-7.617 -3.91,-9.981 -2.6,-2.406 -5.67,-3.629 -9.24,-3.629" /><path
             id="path152"
             style="fill:#100f0d;fill-opacity:1;fill-rule:nonzero;stroke:none"
             d="m 3479.96,334.379 v -3.297 c 4.62,6.387 9.71,11.098 15.24,14.09 5.56,2.98 11.84,4.519 19.12,4.519 6.91,0 13.16,-1.539 18.73,-4.8 5.43,-3.121 9.61,-7.621 12.3,-13.399 1.76,-3.39 2.85,-7.07 3.38,-10.941 0.47,-3.922 0.8,-8.93 0.8,-14.969 v -51.453 c 0,-5.59 -1.29,-9.77 -3.65,-12.617 -2.44,-2.731 -5.63,-4.18 -9.47,-4.18 -3.91,0 -7.11,1.449 -9.53,4.34 -2.47,2.906 -3.75,7 -3.75,12.457 v 46 c 0,9.191 -1.18,16.172 -3.56,20.992 -2.5,4.801 -7.38,7.199 -14.65,7.199 -4.67,0 -8.93,-1.449 -12.83,-4.422 -3.9,-2.898 -6.74,-6.937 -8.54,-12.078 -1.28,-4.101 -1.95,-11.781 -1.95,-23.148 v -34.543 c 0,-5.649 -1.25,-9.879 -3.77,-12.66 -2.5,-2.731 -5.73,-4.137 -9.61,-4.137 -3.81,0 -6.99,1.449 -9.43,4.27 -2.52,2.976 -3.69,7.07 -3.69,12.527 l -0.03,79.812 c 0,5.348 1.12,9.2 3.33,11.848 2.17,2.609 5.25,3.902 9.05,3.902 2.32,0 4.43,-0.621 6.25,-1.73 1.93,-1.102 3.37,-2.891 4.53,-5.148 1.11,-2.293 1.73,-5.102 1.73,-8.434" /><path
             id="path154"
             style="fill:#100f0d;fill-opacity:1;fill-rule:nonzero;stroke:none"
             d="m 3592.03,332.461 21.43,-62.762 23.08,65.492 c 1.84,5.329 3.64,8.957 5.35,11.231 1.78,2.168 4.44,3.269 7.93,3.269 3.38,0 6.27,-1.191 8.7,-3.55 2.3,-2.36 3.51,-5.059 3.51,-8.231 0,-1.199 -0.25,-2.609 -0.68,-4.199 -0.39,-1.641 -0.86,-3.172 -1.45,-4.621 -0.52,-1.391 -1.11,-3.031 -1.89,-4.789 l -25.39,-65.84 c -0.73,-1.879 -1.7,-4.332 -2.8,-7.223 -1.15,-2.918 -2.38,-5.316 -3.75,-7.468 -1.44,-2.008 -3.14,-3.61 -5.15,-4.75 -2.07,-1.161 -4.57,-1.688 -7.46,-1.688 -3.75,0 -6.74,0.859 -9.01,2.648 -2.24,1.782 -3.9,3.7 -4.94,5.848 -1.07,2.121 -2.83,6.313 -5.39,12.633 l -25.23,65.078 c -0.63,1.609 -1.18,3.25 -1.88,4.891 -0.56,1.582 -1.01,3.218 -1.48,4.968 -0.39,1.672 -0.63,3.114 -0.63,4.313 0,1.93 0.53,3.789 1.64,5.629 1.1,1.879 2.7,3.422 4.55,4.582 2,1.148 4.07,1.769 6.35,1.769 4.4,0 7.38,-1.293 9.04,-3.992 1.66,-2.609 3.54,-7.019 5.55,-13.238" /><path
             id="path156"
             style="fill:#100f0d;fill-opacity:1;fill-rule:nonzero;stroke:none"
             d="m 3700.43,302.441 h 48.03 c -0.61,9.411 -3.09,16.508 -7.39,21.168 -4.21,4.672 -9.8,7.032 -16.68,7.032 -6.6,0 -12.03,-2.36 -16.26,-7.141 -4.24,-4.699 -6.78,-11.77 -7.7,-21.059 z m 51.82,-15.691 h -51.82 c 0,-6.352 1.25,-11.848 3.53,-16.711 2.49,-4.707 5.59,-8.34 9.5,-10.769 3.88,-2.45 8.22,-3.661 12.95,-3.661 3.18,0 6.07,0.383 8.69,1.153 2.63,0.828 5.17,2.008 7.69,3.668 2.39,1.621 4.59,3.351 6.72,5.34 2.03,1.89 4.81,4.39 8.03,7.652 1.41,1.238 3.34,1.828 5.82,1.828 2.77,0 4.96,-0.719 6.62,-2.32 1.7,-1.532 2.54,-3.739 2.54,-6.52 0,-2.519 -0.96,-5.449 -2.85,-8.82 -1.86,-3.328 -4.67,-6.559 -8.48,-9.641 -3.77,-3.09 -8.55,-5.578 -14.26,-7.66 -5.7,-2.019 -12.24,-2.957 -19.72,-2.957 -17.07,0 -30.32,5.039 -39.67,15.109 -9.45,10.207 -14.16,23.911 -14.16,41.18 0,8.27 1.15,15.828 3.46,22.801 2.38,7 5.72,13.019 10.21,17.957 4.41,5.023 9.92,8.922 16.47,11.519 6.58,2.692 13.78,3.981 21.77,3.981 10.28,0 19.16,-2.238 26.59,-6.82 7.4,-4.579 12.98,-10.387 16.64,-17.598 3.71,-7.281 5.52,-14.609 5.52,-22.141 0,-6.961 -1.85,-11.48 -5.66,-13.488 -3.89,-2.082 -9.2,-3.082 -16.13,-3.082" /><path
             id="path158"
             style="fill:#100f0d;fill-opacity:1;fill-rule:nonzero;stroke:none"
             d="m 3891.45,271.48 c 0,-3.39 -1.02,-7.07 -3.01,-10.96 -2.01,-3.938 -4.94,-7.661 -9.05,-11.211 -3.98,-3.528 -9.12,-6.387 -15.29,-8.52 -6.11,-2.207 -13.1,-3.277 -20.74,-3.277 -16.41,0 -29.16,4.988 -38.3,14.929 -9.18,9.961 -13.83,23.289 -13.83,40.039 0,11.301 2.09,21.418 6.31,30.09 4.24,8.641 10.25,15.43 18.24,20.2 7.95,4.75 17.46,7.109 28.52,7.109 6.91,0 13.16,-1.039 18.92,-3.047 5.69,-2.152 10.55,-4.871 14.53,-8.152 4.01,-3.328 7.05,-6.84 9.16,-10.578 2.07,-3.77 3.13,-7.223 3.13,-10.5 0,-3.293 -1.15,-6.051 -3.61,-8.391 -2.33,-2.301 -5.14,-3.441 -8.52,-3.441 -2.21,0 -4.04,0.652 -5.43,1.82 -1.5,1.16 -3.12,2.98 -4.96,5.672 -3.22,5.097 -6.6,8.988 -10.1,11.597 -3.57,2.543 -8.06,3.903 -13.49,3.903 -7.8,0 -14.14,-3.282 -18.91,-9.614 -4.81,-6.457 -7.19,-15.128 -7.19,-26.25 0,-5.148 0.65,-10.007 1.84,-14.347 1.25,-4.371 3.04,-8.02 5.35,-11.141 2.36,-3.078 5.14,-5.398 8.48,-6.93 3.2,-1.64 6.89,-2.449 10.8,-2.449 5.31,0 9.92,1.289 13.69,3.821 3.75,2.628 7.11,6.546 10.06,11.757 1.58,3.18 3.36,5.582 5.25,7.36 1.82,1.793 4.12,2.551 6.88,2.551 3.18,0 5.89,-1.219 7.98,-3.758 2.17,-2.641 3.29,-5.321 3.29,-8.282" /><path
             id="path160"
             style="fill:#100f0d;fill-opacity:1;fill-rule:nonzero;stroke:none"
             d="m 3916.04,347.32 h 2.92 V 364 c 0,4.371 0.08,7.93 0.34,10.469 0.23,2.523 0.82,4.691 1.87,6.531 1.02,1.859 2.56,3.391 4.49,4.59 1.9,1.172 4.07,1.73 6.49,1.73 3.32,0 6.39,-1.328 9.1,-3.89 1.78,-1.821 2.93,-3.95 3.4,-6.438 0.55,-2.523 0.74,-6.172 0.74,-10.84 V 347.32 h 9.77 c 3.73,0 6.58,-0.898 8.57,-2.781 2.01,-1.82 2.99,-4.18 2.99,-7.07 0,-3.758 -1.43,-6.387 -4.3,-7.828 -2.73,-1.45 -6.79,-2.239 -12.05,-2.239 h -4.98 V 276.5 c 0,-4.328 0.14,-7.66 0.47,-10.008 0.29,-2.363 1.13,-4.242 2.36,-5.621 1.25,-1.519 3.28,-2.281 6.19,-2.281 1.51,0 3.58,0.289 6.27,0.922 2.62,0.527 4.67,0.808 6.21,0.808 2.13,0 4.09,-0.898 5.77,-2.629 1.7,-1.793 2.57,-4 2.57,-6.66 0,-4.41 -2.28,-7.851 -6.95,-10.191 -4.76,-2.36 -11.4,-3.508 -20.12,-3.508 -8.28,0 -14.55,1.449 -18.84,4.34 -4.24,2.906 -7.07,6.867 -8.38,12.058 -1.35,5.149 -1.98,12 -1.98,20.54 v 53.132 h -3.57 c -3.75,0 -6.66,0.918 -8.65,2.84 -2.03,1.918 -3.03,4.297 -3.03,7.227 0,2.89 1.06,5.25 3.13,7.07 2.12,1.883 5.21,2.781 9.2,2.781" /><path
             id="path162"
             style="fill:#100f0d;fill-opacity:1;fill-rule:nonzero;stroke:none"
             d="m 4057.48,293.449 c 0,11.211 -2.44,20.031 -7.15,26.313 -4.8,6.258 -11.15,9.457 -19.2,9.457 -5.13,0 -9.7,-1.469 -13.65,-4.25 -3.94,-2.84 -6.99,-6.981 -9.08,-12.43 -2.19,-5.43 -3.24,-11.777 -3.24,-19.09 0,-7.23 1.05,-13.539 3.16,-18.918 2.13,-5.41 5.12,-9.543 9,-12.41 3.91,-2.851 8.48,-4.301 13.81,-4.301 8.05,0 14.4,3.141 19.2,9.442 4.71,6.297 7.15,15.039 7.15,26.187 z m 26.6,0 c 0,-8.199 -1.25,-15.808 -3.75,-22.84 -2.4,-6.871 -6.01,-12.828 -10.66,-17.839 -4.63,-5.059 -10.22,-8.739 -16.68,-11.52 -6.43,-2.629 -13.67,-3.918 -21.86,-3.918 -8.02,0 -15.25,1.289 -21.64,3.988 -6.36,2.711 -11.93,6.59 -16.62,11.602 -4.65,5.039 -8.22,10.969 -10.62,17.797 -2.46,6.883 -3.66,14.429 -3.66,22.75 0,8.383 1.2,16.043 3.66,22.961 2.5,6.992 5.97,12.922 10.58,17.871 4.61,4.898 10.16,8.711 16.66,11.359 6.62,2.699 13.81,4.031 21.64,4.031 8.05,0 15.32,-1.332 21.86,-4.082 6.54,-2.64 12.13,-6.539 16.8,-11.546 4.6,-5 8.22,-10.934 10.64,-17.852 2.4,-6.852 3.65,-14.492 3.65,-22.762" /><path
             id="path164"
             style="fill:#100f0d;fill-opacity:1;fill-rule:nonzero;stroke:none"
             d="m 4131.23,277.121 v -22.992 c 0,-5.649 -1.25,-9.879 -3.73,-12.66 -2.58,-2.731 -5.78,-4.137 -9.65,-4.137 -3.77,0 -6.97,1.449 -9.41,4.18 -2.44,2.847 -3.67,7.027 -3.67,12.617 v 76.953 c 0,12.418 4.27,18.609 12.91,18.609 4.31,0 7.55,-1.492 9.53,-4.339 1.93,-2.911 2.93,-7.2 3.18,-12.891 3.16,5.691 6.43,9.98 9.77,12.891 3.3,2.847 7.73,4.339 13.28,4.339 5.62,0 10.97,-1.492 16.27,-4.339 5.21,-2.911 7.87,-6.793 7.87,-11.582 0,-3.372 -1.19,-6.168 -3.42,-8.309 -2.17,-2.199 -4.61,-3.332 -7.19,-3.332 -0.99,0 -3.36,0.652 -7.11,1.922 -3.69,1.25 -6.95,1.871 -9.84,1.871 -3.85,0 -7.05,-1.063 -9.43,-3.231 -2.48,-2.14 -4.38,-5.23 -5.75,-9.429 -1.38,-4.231 -2.36,-9.199 -2.81,-15.02 -0.51,-5.711 -0.8,-12.742 -0.8,-21.121" /><path
             id="path166"
             style="fill:#100f0d;fill-opacity:1;fill-rule:nonzero;stroke:none"
             d="m 4272.34,273.422 c 0,-7.652 -1.71,-14.152 -5.35,-19.641 -3.59,-5.461 -8.85,-9.531 -15.76,-12.312 -7.01,-2.731 -15.41,-4.137 -25.41,-4.137 -9.49,0 -17.66,1.5 -24.51,4.508 -6.8,3.019 -11.8,6.832 -15.02,11.359 -3.2,4.582 -4.9,9.11 -4.9,13.711 0,3.039 1.07,5.629 3.18,7.75 2.07,2.211 4.69,3.289 7.85,3.289 2.79,0 4.88,-0.719 6.41,-2.129 1.52,-1.449 2.89,-3.461 4.28,-5.961 2.71,-4.957 5.95,-8.66 9.76,-11.089 3.75,-2.45 8.95,-3.629 15.49,-3.629 5.29,0 9.63,1.238 13.05,3.699 3.36,2.449 5.15,5.289 5.15,8.422 0,4.91 -1.83,8.468 -5.29,10.636 -3.57,2.301 -9.36,4.403 -17.5,6.403 -9.08,2.398 -16.54,4.898 -22.27,7.461 -5.72,2.648 -10.35,6.058 -13.77,10.289 -3.39,4.25 -5.13,9.5 -5.13,15.668 0,5.609 1.6,10.84 4.76,15.711 3.19,4.961 7.89,8.902 14.05,11.832 6.17,2.937 13.61,4.429 22.36,4.429 6.91,0 13.07,-0.769 18.55,-2.211 5.43,-1.488 10.08,-3.511 13.66,-5.98 3.67,-2.539 6.46,-5.27 8.32,-8.32 1.97,-3.059 2.91,-6.02 2.91,-8.879 0,-3.18 -1.02,-5.75 -3.09,-7.871 -2.03,-1.918 -4.96,-2.95 -8.67,-2.95 -2.74,0 -5,0.739 -6.97,2.43 -1.9,1.602 -4.1,4.051 -6.55,7.219 -1.97,2.699 -4.33,4.84 -7.07,6.512 -2.77,1.57 -6.4,2.429 -11.09,2.429 -4.75,0 -8.79,-1.058 -11.91,-3.199 -3.19,-2.141 -4.77,-4.769 -4.77,-7.949 0,-2.934 1.17,-5.301 3.44,-7.16 2.36,-1.84 5.51,-3.371 9.47,-4.641 4,-1.199 9.41,-2.699 16.31,-4.461 8.22,-2.058 14.96,-4.531 20.15,-7.469 5.22,-2.89 9.17,-6.3 11.82,-10.289 2.77,-3.961 4.06,-8.422 4.06,-13.48" /><path
             id="path168"
             style="fill:#100f0d;fill-opacity:1;fill-rule:nonzero;stroke:none"
             d="m 4302.46,237.332 c -4.02,0 -7.5,1.289 -10.37,3.988 -2.93,2.711 -4.38,6.5 -4.38,11.36 0,4.101 1.33,7.64 4.13,10.57 2.75,3.012 6.23,4.422 10.29,4.422 4.06,0 7.56,-1.41 10.35,-4.352 2.95,-2.89 4.4,-6.5 4.4,-10.64 0,-4.821 -1.45,-8.578 -4.4,-11.289 -2.79,-2.77 -6.17,-4.059 -10.02,-4.059" /><path
             id="path170"
             style="fill:#100f0d;fill-opacity:1;fill-rule:nonzero;stroke:none"
             d="m 4419.61,293.449 c 0,11.211 -2.4,20.031 -7.15,26.313 -4.78,6.258 -11.15,9.457 -19.16,9.457 -5.16,0 -9.69,-1.469 -13.61,-4.25 -4.03,-2.84 -7.03,-6.981 -9.16,-12.43 -2.13,-5.43 -3.17,-11.777 -3.17,-19.09 0,-7.23 1,-13.539 3.11,-18.918 2.11,-5.41 5.12,-9.543 9.06,-12.41 3.89,-2.851 8.52,-4.301 13.77,-4.301 8.01,0 14.38,3.141 19.16,9.442 4.75,6.297 7.15,15.039 7.15,26.187 z m 26.62,0 c 0,-8.199 -1.19,-15.808 -3.77,-22.84 -2.44,-6.871 -5.94,-12.828 -10.6,-17.839 -4.69,-5.059 -10.16,-8.739 -16.72,-11.52 -6.45,-2.629 -13.71,-3.918 -21.84,-3.918 -7.99,0 -15.21,1.289 -21.62,3.988 -6.41,2.711 -11.91,6.59 -16.6,11.602 -4.77,5.039 -8.28,10.969 -10.74,17.797 -2.39,6.883 -3.62,14.429 -3.62,22.75 0,8.383 1.23,16.043 3.67,22.961 2.56,6.992 5.98,12.922 10.59,17.871 4.57,4.898 10.16,8.711 16.7,11.359 6.52,2.699 13.71,4.031 21.62,4.031 8.01,0 15.27,-1.332 21.84,-4.082 6.56,-2.64 12.13,-6.539 16.79,-11.546 4.67,-5 8.17,-10.934 10.69,-17.852 2.42,-6.852 3.61,-14.492 3.61,-22.762" /><path
             id="path172"
             style="fill:#100f0d;fill-opacity:1;fill-rule:nonzero;stroke:none"
             d="m 4493.4,277.121 v -22.992 c 0,-5.649 -1.25,-9.879 -3.77,-12.66 -2.5,-2.731 -5.72,-4.137 -9.57,-4.137 -3.89,0 -6.99,1.449 -9.47,4.18 -2.48,2.847 -3.64,7.027 -3.64,12.617 v 76.953 c 0,12.418 4.3,18.609 12.87,18.609 4.42,0 7.58,-1.492 9.48,-4.339 1.93,-2.911 3.08,-7.2 3.28,-12.891 3.12,5.691 6.35,9.98 9.67,12.891 3.36,2.847 7.85,4.339 13.32,4.339 5.7,0 11.07,-1.492 16.27,-4.339 5.21,-2.911 7.91,-6.793 7.91,-11.582 0,-3.372 -1.18,-6.168 -3.38,-8.309 -2.25,-2.199 -4.61,-3.332 -7.27,-3.332 -0.94,0 -3.28,0.652 -6.99,1.922 -3.73,1.25 -6.99,1.871 -9.9,1.871 -3.85,0 -7.01,-1.063 -9.53,-3.231 -2.41,-2.14 -4.34,-5.23 -5.67,-9.429 -1.37,-4.231 -2.32,-9.199 -2.85,-15.02 -0.49,-5.711 -0.76,-12.742 -0.76,-21.121" /><path
             id="path174"
             style="fill:#100f0d;fill-opacity:1;fill-rule:nonzero;stroke:none"
             d="m 4569.9,294.41 c 0,-11.211 2.33,-19.699 7.03,-25.469 4.67,-5.691 10.78,-8.621 18.15,-8.621 4.39,0 8.61,1.321 12.5,3.743 3.9,2.519 7.13,6.179 9.57,11.136 2.48,5 3.69,11.02 3.69,18.09 0,11.281 -2.44,20.039 -7.15,26.34 -4.74,6.293 -11.01,9.434 -18.73,9.434 -7.58,0 -13.65,-3.043 -18.18,-9.012 -4.61,-6.071 -6.88,-14.582 -6.88,-25.641 z m 76.76,35.031 v -80.332 c 0,-9.187 -0.98,-17.14 -2.81,-23.66 -1.9,-6.699 -4.94,-12.129 -9.01,-16.488 -4.16,-4.27 -9.64,-7.492 -16.29,-9.621 -6.67,-2.008 -15,-3.051 -24.96,-3.051 -9.14,0 -17.3,1.293 -24.45,3.91 -7.23,2.762 -12.75,6.141 -16.6,10.422 -3.89,4.16 -5.86,8.52 -5.86,12.981 0,3.437 1.09,6.148 3.3,8.277 2.21,2.121 4.86,3.25 7.95,3.25 3.91,0 7.27,-1.848 10.21,-5.41 1.45,-1.887 2.93,-3.707 4.42,-5.52 1.48,-1.89 3.16,-3.48 5.06,-4.777 1.81,-1.352 4.08,-2.293 6.68,-2.981 2.52,-0.632 5.52,-0.953 8.9,-0.953 6.84,0 12.21,1.043 15.98,3.012 3.75,1.98 6.41,4.781 7.95,8.289 1.48,3.602 2.46,7.41 2.62,11.481 0.31,4.14 0.45,10.71 0.64,19.761 -4.08,-5.89 -8.85,-10.449 -14.14,-13.539 -5.29,-3.101 -11.7,-4.621 -19,-4.621 -8.97,0 -16.7,2.328 -23.3,7.07 -6.65,4.731 -11.76,11.321 -15.3,19.899 -3.53,8.41 -5.35,18.269 -5.35,29.43 0,8.339 1.04,15.832 3.24,22.531 2.13,6.66 5.22,12.281 9.32,16.898 3.93,4.551 8.61,8.012 13.85,10.371 5.25,2.328 10.93,3.469 17.28,3.469 7.46,0 14.01,-1.469 19.49,-4.508 5.53,-3 10.59,-7.761 15.32,-14.14 v 3.757 c 0,4.793 1.21,8.442 3.4,11.211 2.26,2.582 5.19,3.93 8.73,3.93 5.13,0 8.55,-1.719 10.23,-5.25 1.66,-3.457 2.5,-8.519 2.5,-15.098" /><path
             id="path176"
             style="fill:#100f0d;fill-opacity:1;fill-rule:nonzero;stroke:none"
             d="m 3498.44,598.699 h 39.31 c -2.79,-21.238 -11.44,-37.738 -25.93,-49.609 -13.38,-11.711 -29.55,-17.418 -48.46,-17.418 -25.65,0 -46.09,8.969 -61.42,26.988 -14.48,17.121 -21.73,39.231 -21.73,66.199 0,27.629 7.19,49.77 21.55,66.539 14.28,16.641 34.61,25.024 60.73,25.024 19.47,0 35.95,-5.262 49.33,-15.703 14.2,-11.317 22.85,-27.188 25.93,-47.508 h -39.31 c -3.36,17.738 -14.26,26.578 -32.66,26.578 -30.39,0 -45.58,-17.988 -45.58,-53.988 0,-16.891 3.86,-30.66 11.73,-41.399 7.8,-10.773 18.83,-16.183 33.03,-16.183 21.16,0 32.33,10.172 33.48,30.48 z m -154.72,24.793 c 0,-35.191 11.15,-64.992 33.45,-89.172 22.26,-24.308 49.57,-36.441 81.96,-36.441 32.24,0 59.56,12.133 81.87,36.441 22.26,24.18 33.39,53.981 33.39,89.172 0,35.129 -11.13,64.86 -33.39,89.117 -22.31,24.321 -49.63,36.43 -81.87,36.43 -32.39,0 -59.7,-12.109 -81.96,-36.43 -22.3,-24.257 -33.45,-53.988 -33.45,-89.117 z m -39.91,0 c 0,44.738 15.17,82.906 45.49,114.688 30.33,31.66 66.93,47.492 109.83,47.492 42.82,0 79.35,-15.832 109.76,-47.492 30.33,-31.782 45.54,-69.95 45.54,-114.688 0,-44.754 -15.21,-83.004 -45.54,-114.722 -30.41,-31.68 -66.94,-47.579 -109.76,-47.579 -42.88,0 -79.5,15.899 -109.83,47.579 -30.32,31.718 -45.49,69.968 -45.49,114.722" /><path
             id="path178"
             style="fill:#100f0d;fill-opacity:1;fill-rule:nonzero;stroke:none"
             d="m 3366.68,521.75 22.6,-19.219 166.58,213.891 -22.64,19.199 -166.54,-213.871" /></g></g></g></g></svg>
