<?xml version="1.0" encoding="UTF-8" standalone="no"?>
<svg
   xmlns:dc="http://purl.org/dc/elements/1.1/"
   xmlns:cc="http://creativecommons.org/ns#"
   xmlns:rdf="http://www.w3.org/1999/02/22-rdf-syntax-ns#"
   xmlns:svg="http://www.w3.org/2000/svg"
   xmlns="http://www.w3.org/2000/svg"
   viewBox="0 0 880.08002 880"
   height="880"
   width="880.08002"
   xml:space="preserve"
   id="svg2"
   version="1.1"><metadata
     id="metadata8"><rdf:RDF><cc:Work
         rdf:about=""><dc:format>image/svg+xml</dc:format><dc:type
           rdf:resource="http://purl.org/dc/dcmitype/StillImage" /></cc:Work></rdf:RDF></metadata><defs
     id="defs6"><clipPath
       id="clipPath20"
       clipPathUnits="userSpaceOnUse"><path
         id="path18"
         d="M 0,6600 V 0 h 6600.59 v 6600 z" /></clipPath></defs><g
     transform="matrix(1.3333333,0,0,-1.3333333,0,880)"
     id="g10"><g
       transform="scale(0.1)"
       id="g12"><g
         id="g14"><g
           clip-path="url(#clipPath20)"
           id="g16"><path
             id="path22"
             style="fill:#e5efbe;fill-opacity:1;fill-rule:evenodd;stroke:none"
             d="M 0,0 H 6600.01 V 6600 H 0 Z" /><path
             id="path24"
             style="fill:#eff03b;fill-opacity:1;fill-rule:evenodd;stroke:none"
             d="m 4838.65,2961.86 c 490.14,0 889.89,399.74 889.89,889.88 0,490.13 -399.75,889.89 -889.89,889.89 -490.12,0 -889.88,-399.76 -889.88,-889.89 0,-490.14 399.76,-889.88 889.88,-889.88" /><path
             id="path26"
             style="fill:#ffffff;fill-opacity:1;fill-rule:evenodd;stroke:none"
             d="M 3041.04,6600 H 3450.3 L 3296.12,6347 C 3059,5957.83 2663.3,5735.17 2207.5,5735.17 H 0.0117188 v 580.24 H 2207.5 c 333.75,0 616.55,-71.49 790.28,213.61 l 43.26,70.98" /><path
             id="path28"
             style="fill:#9da586;fill-opacity:1;fill-rule:evenodd;stroke:none"
             d="M 0.0117188,0 H 6600.0117 V 2625.17 H 0.0117188 Z" /><path
             id="path30"
             style="fill:#ffffff;fill-opacity:1;fill-rule:evenodd;stroke:none"
             d="M 6600.01,5233.69 H 4390.14 c -1672.64,0 -1206.48,-578.42 -2335.98,-578.42 H 0.0117188 v 700.69 H 2847.66 c 1116.43,0 576.1,578.42 1750.1,578.42 h 2002.25 v -700.69" /><path
             id="path32"
             style="fill:#d0e675;fill-opacity:1;fill-rule:evenodd;stroke:none"
             d="M 0.0117188,3982.26 556.086,4303.32 1487.6,3765.5 l 542.13,313 1088.49,-628.45 689.79,398.25 886.22,-511.65 1314.07,758.68 592.29,-341.95 -0.58,-1128.21 H 0.0117188 v 1357.09" /><path
             id="path34"
             style="fill:#87b027;fill-opacity:1;fill-rule:evenodd;stroke:none"
             d="M 207.688,2625.17 1937.95,3624.13 3681.3,2617.6 207.688,2625.17" /><path
             id="path36"
             style="fill:#adda1a;fill-opacity:1;fill-rule:evenodd;stroke:none"
             d="M 1937.95,3624.13 2128.36,2620.99 3681.3,2617.6 1937.95,3624.13" /><path
             id="path38"
             style="fill:#9ac421;fill-opacity:1;fill-rule:evenodd;stroke:none"
             d="M 1303.58,2624.61 3816.5,4078.63 6345.75,2625.15 1303.58,2624.61" /><path
             id="path40"
             style="fill:#adda1a;fill-opacity:1;fill-rule:evenodd;stroke:none"
             d="m 3816.5,4078.63 276.43,-1456.12 2252.87,2.64 -2529.3,1453.48" /><path
             id="path42"
             style="fill:#858f67;fill-opacity:1;fill-rule:evenodd;stroke:none"
             d="M 206.301,2625.17 1937.95,2057.61 3681.54,2622.3 206.301,2625.17" /><path
             id="path44"
             style="fill:#929e72;fill-opacity:1;fill-rule:evenodd;stroke:none"
             d="m 1937.95,2057.61 190.41,553.42 1552.94,1.87 -1743.35,-555.29" /><path
             id="path46"
             style="fill:#858f67;fill-opacity:1;fill-rule:evenodd;stroke:none"
             d="m 1304.96,2621.29 2511.54,-814.45 2529.3,818.33 -5040.84,-3.88" /><path
             id="path48"
             style="fill:#929e72;fill-opacity:1;fill-rule:evenodd;stroke:none"
             d="m 3816.5,1806.84 276.43,814.01 2252.87,4.3 -2529.3,-818.31" /><path
             id="path50"
             style="fill:#e5efbe;fill-opacity:1;fill-rule:evenodd;stroke:none"
             d="m 2491.59,999.141 h 771.25 v 993.07 h -771.25 z" /><path
             id="path52"
             style="fill:#4a5e23;fill-opacity:1;fill-rule:evenodd;stroke:none"
             d="M 2491.59,1992.21 2232.05,2263.54 1972.5,1992.21 V 999.141 h 519.09 v 993.069" /><path
             id="path54"
             style="fill:#adda1a;fill-opacity:1;fill-rule:evenodd;stroke:none"
             d="m 3262.84,1992.21 h -771.25 l -259.54,271.33 h 774.13 l 256.66,-271.33" /><path
             id="path56"
             style="fill:#4a5e23;fill-opacity:1;fill-rule:evenodd;stroke:none"
             d="m 2842.42,1858.66 h 123.81 v -265.1 h -123.81 z m -232.13,0 h 123.79 v -265.1 h -123.79 v 265.1" /><path
             id="path58"
             style="fill:#4a5e23;fill-opacity:1;fill-rule:evenodd;stroke:none"
             d="m 2979.6,1435.98 h 123.82 V 1170.85 H 2979.6 Z m -232.14,0 h 123.8 v -265.13 h -123.8 v 265.13" /><path
             id="path60"
             style="fill:#393c2c;fill-opacity:1;fill-rule:evenodd;stroke:none"
             d="m 848.559,1251.6 h 96.4063 v 712.77 H 848.559 Z" /><path
             id="path62"
             style="fill:#4a5e23;fill-opacity:1;fill-rule:evenodd;stroke:none"
             d="m 896.77,2555.12 c 176.35,0 319.3,-631.64 319.3,-852.82 0,-221.16 -142.95,-255.84 -319.3,-255.84 -176.364,0 -319.321,34.68 -319.321,255.84 0,221.18 142.957,852.82 319.321,852.82" /><path
             id="path64"
             style="fill:#4a5e23;fill-opacity:1;fill-rule:evenodd;stroke:none"
             d="m 3878.3,916.242 c 220.55,0 400.44,179.888 400.44,400.468 0,220.57 -179.89,400.45 -400.44,400.45 -220.57,0 -400.45,-179.88 -400.45,-400.45 0,-220.58 179.88,-400.468 400.45,-400.468" /><path
             id="path66"
             style="fill:#393c2c;fill-opacity:1;fill-rule:evenodd;stroke:none"
             d="m 3830.1,576.77 h 96.4102 v 712.75 H 3830.1 Z" /><path
             id="path68"
             style="fill:#e5efbe;fill-opacity:1;fill-rule:evenodd;stroke:none"
             d="m 748.238,823.102 h 771.223 v 993.047 H 748.238 Z" /><path
             id="path70"
             style="fill:#4a5e23;fill-opacity:1;fill-rule:evenodd;stroke:none"
             d="M 748.238,1816.15 488.688,2087.49 229.133,1816.15 V 823.102 h 519.105 v 993.048" /><path
             id="path72"
             style="fill:#adda1a;fill-opacity:1;fill-rule:evenodd;stroke:none"
             d="M 1519.46,1816.15 H 748.238 l -259.55,271.34 h 774.122 l 256.65,-271.34" /><path
             id="path74"
             style="fill:#4a5e23;fill-opacity:1;fill-rule:evenodd;stroke:none"
             d="m 1099.05,1682.61 h 123.83 v -265.1 h -123.83 z m -232.132,0 h 123.801 v -265.1 H 866.918 v 265.1" /><path
             id="path76"
             style="fill:#4a5e23;fill-opacity:1;fill-rule:evenodd;stroke:none"
             d="m 1236.26,1259.92 h 123.78 V 994.789 h -123.78 z m -232.15,0 h 123.81 V 994.789 h -123.81 v 265.131" /><path
             id="path78"
             style="fill:#393c2c;fill-opacity:1;fill-rule:evenodd;stroke:none"
             d="m 1558.69,1120.48 h 96.3867 v 712.738 H 1558.69 Z" /><path
             id="path80"
             style="fill:#4a5e23;fill-opacity:1;fill-rule:evenodd;stroke:none"
             d="m 1606.9,2423.96 c 176.36,0 319.32,-631.64 319.32,-852.78 0,-221.17 -142.96,-255.86 -319.32,-255.86 -176.36,0 -319.32,34.69 -319.32,255.86 0,221.14 142.96,852.78 319.32,852.78" /><path
             id="path82"
             style="fill:#393c2c;fill-opacity:1;fill-rule:evenodd;stroke:none"
             d="m 4549.44,576.77 h 96.4102 v 712.75 H 4549.44 Z" /><path
             id="path84"
             style="fill:#4a5e23;fill-opacity:1;fill-rule:evenodd;stroke:none"
             d="m 4597.62,1880.29 c 176.36,0 319.35,-631.67 319.35,-852.81 0,-221.16 -142.99,-255.851 -319.35,-255.851 -176.34,0 -319.33,34.691 -319.33,255.851 0,221.14 142.99,852.81 319.33,852.81" /><path
             id="path86"
             style="fill:#769a2a;fill-opacity:1;fill-rule:evenodd;stroke:none"
             d="M 0.0117188,1312.58 1308.82,1339.62 1898.51,999.141 H 3251.76 L 3983.34,576.77 H 6600.01 V 0 H 0.0117188 v 1312.58" /><path
             id="path88"
             style="fill:#f9f562;fill-opacity:1;fill-rule:nonzero;stroke:none"
             d="m 2112.04,278 c 0,7.309 -1.06,13.621 -3.22,18.813 -2.12,5.246 -5.06,9.277 -8.89,12.128 -3.78,2.801 -7.95,4.188 -12.57,4.188 -7.26,0 -13.44,-3.027 -18.5,-9.008 -4.99,-6.109 -7.55,-14.859 -7.55,-26.582 0,-11.039 2.56,-19.57 7.51,-25.641 5.01,-6.128 11.17,-9.226 18.54,-9.226 4.42,0 8.52,1.348 12.28,4.047 3.69,2.679 6.72,6.703 8.98,11.972 2.3,5.379 3.42,11.778 3.42,19.309 z m -51.94,40.332 v -3.371 c 4.97,6.391 10.17,11.141 15.52,14.141 5.38,3.039 11.49,4.507 18.28,4.507 8.13,0 15.64,-2.207 22.51,-6.57 6.85,-4.398 12.3,-10.789 16.29,-19.269 3.94,-8.399 5.97,-18.418 5.97,-29.969 0,-8.469 -1.19,-16.352 -3.48,-23.379 -2.27,-7.18 -5.43,-13.203 -9.43,-17.992 -4.05,-4.891 -8.81,-8.59 -14.26,-11.149 -5.46,-2.621 -11.35,-3.871 -17.6,-3.871 -7.62,0 -13.96,1.531 -19.11,4.699 -5.2,3.18 -10.05,7.801 -14.69,13.95 V 198.57 c 0,-12.168 -4.26,-18.211 -12.74,-18.211 -4.96,0 -8.27,1.512 -9.86,4.641 -1.64,3.172 -2.41,7.77 -2.41,13.77 v 119.359 c 0,5.23 1.06,9.242 3.28,11.801 2.22,2.582 5.24,3.941 8.99,3.941 3.8,0 6.84,-1.359 9.19,-4.051 2.36,-2.691 3.55,-6.55 3.55,-11.488" /><path
             id="path90"
             style="fill:#f9f562;fill-opacity:1;fill-rule:nonzero;stroke:none"
             d="m 2228.79,236.988 v 3.512 c -3.22,-4.18 -6.54,-7.691 -10.05,-10.508 -3.49,-2.871 -7.32,-4.933 -11.41,-6.332 -4.19,-1.39 -8.92,-2.078 -14.19,-2.078 -6.41,0 -12.13,1.398 -17.22,4.156 -5.12,2.742 -9.02,6.571 -11.81,11.434 -3.32,5.891 -4.96,14.308 -4.96,25.258 l 0.01,54.832 c 0,5.527 1.2,9.668 3.6,12.429 2.42,2.668 5.54,4.071 9.49,4.071 4.05,0 7.27,-1.403 9.72,-4.18 2.43,-2.73 3.66,-6.871 3.66,-12.32 v -44.27 c 0,-6.422 0.53,-11.801 1.53,-16.121 1.06,-4.402 2.89,-7.812 5.69,-10.269 2.58,-2.454 6.25,-3.653 10.82,-3.653 4.54,0 8.76,1.41 12.61,4.16 4,2.731 6.89,6.332 8.71,10.77 1.5,3.953 2.22,12.5 2.22,25.793 v 33.59 c 0,5.449 1.25,9.59 3.69,12.32 2.41,2.777 5.65,4.18 9.6,4.18 3.93,0 7.11,-1.403 9.52,-4.071 2.35,-2.761 3.56,-6.902 3.56,-12.429 v -80.09 c 0,-5.281 -1.1,-9.223 -3.47,-11.852 -2.27,-2.621 -5.2,-3.91 -8.86,-3.91 -3.61,0 -6.59,1.399 -8.94,4.051 -2.36,2.777 -3.52,6.559 -3.52,11.527" /><path
             id="path92"
             style="fill:#f9f562;fill-opacity:1;fill-rule:nonzero;stroke:none"
             d="m 2305.67,276.922 c 0,-11 2.34,-19.43 7.15,-25.352 4.88,-5.859 11.17,-8.898 19.02,-8.898 6.67,0 12.4,3.039 17.22,9.078 4.87,6.09 7.27,14.699 7.27,25.949 0,7.422 -1.01,13.68 -3.04,18.91 -2,5.289 -4.88,9.352 -8.51,12.2 -3.76,2.863 -8.04,4.32 -12.94,4.32 -5.11,0 -9.53,-1.457 -13.49,-4.32 -3.98,-2.848 -7.07,-7.008 -9.33,-12.477 -2.25,-5.41 -3.35,-11.852 -3.35,-19.41 z m -1.3,82.219 v -42.262 c 4.93,5.43 10.04,9.531 15.2,12.461 5.19,2.89 11.64,4.269 19.23,4.269 8.82,0 16.52,-2.207 23.16,-6.48 6.63,-4.418 11.78,-10.727 15.44,-18.957 3.67,-8.281 5.5,-18.102 5.5,-29.453 0,-8.379 -1.02,-16.09 -3.04,-23.047 -2.07,-6.992 -5,-13.051 -8.9,-18.223 -3.88,-5.078 -8.61,-9.008 -14.1,-11.898 -5.57,-2.742 -11.68,-4.141 -18.35,-4.141 -4.02,0 -7.88,0.461 -11.49,1.488 -3.61,1.012 -6.7,2.301 -9.2,4.024 -2.49,1.558 -4.66,3.328 -6.45,5.058 -1.77,1.801 -4.07,4.379 -7,7.899 v -2.707 c 0,-5.242 -1.24,-9.133 -3.62,-11.852 -2.41,-2.621 -5.44,-3.91 -9.1,-3.91 -3.8,0 -6.74,1.289 -9,3.91 -2.23,2.789 -3.32,6.66 -3.32,11.852 V 357.93 c 0,5.59 1.06,9.769 3.21,12.66 2.22,2.89 5.2,4.332 9.11,4.332 4.03,0 7.22,-1.402 9.39,-4.16 2.22,-2.711 3.33,-6.59 3.33,-11.621" /><path
             id="path94"
             style="fill:#f9f562;fill-opacity:1;fill-rule:nonzero;stroke:none"
             d="M 2401.57,238.199 V 358.09 c 0,5.582 1.19,9.762 3.51,12.582 2.4,2.808 5.59,4.25 9.57,4.25 4.05,0 7.27,-1.402 9.73,-4.25 2.4,-2.731 3.72,-6.981 3.72,-12.582 V 238.199 c 0,-5.648 -1.32,-9.879 -3.78,-12.648 -2.5,-2.742 -5.71,-4.141 -9.67,-4.141 -3.85,0 -6.97,1.442 -9.44,4.328 -2.45,2.91 -3.64,7 -3.64,12.461" /><path
             id="path96"
             style="fill:#f9f562;fill-opacity:1;fill-rule:nonzero;stroke:none"
             d="m 2481.94,318.02 v -79.821 c 0,-5.578 -1.3,-9.758 -3.76,-12.609 -2.55,-2.738 -5.77,-4.18 -9.63,-4.18 -3.9,0 -7.02,1.442 -9.48,4.262 -2.4,2.976 -3.65,7.066 -3.65,12.527 v 79.063 c 0,5.449 1.25,9.59 3.65,12.32 2.46,2.777 5.58,4.18 9.48,4.18 3.86,0 7.08,-1.403 9.63,-4.18 2.46,-2.73 3.76,-6.59 3.76,-11.562 z m -13.16,28.66 c -3.64,0 -6.77,1.14 -9.46,3.539 -2.55,2.371 -3.9,5.793 -3.9,10.07 0,3.883 1.35,7.121 4.05,9.68 2.63,2.543 5.76,3.75 9.31,3.75 3.45,0 6.52,-1.117 9.16,-3.418 2.66,-2.25 4,-5.692 4,-10.012 0,-4.277 -1.34,-7.609 -3.9,-9.98 -2.6,-2.411 -5.68,-3.629 -9.26,-3.629" /><path
             id="path98"
             style="fill:#f9f562;fill-opacity:1;fill-rule:nonzero;stroke:none"
             d="m 2604.17,255.563 c 0,-3.391 -0.96,-7.071 -2.89,-10.973 -2.01,-3.942 -5.04,-7.66 -9.09,-11.211 -4.04,-3.527 -9.14,-6.391 -15.25,-8.52 -6.16,-2.199 -13.08,-3.277 -20.74,-3.277 -16.41,0 -29.16,4.988 -38.37,14.93 -9.18,9.957 -13.76,23.289 -13.76,40.039 0,11.301 2.08,21.418 6.27,30.058 4.18,8.672 10.34,15.461 18.23,20.243 7.94,4.738 17.47,7.109 28.53,7.109 6.89,0 13.2,-1.051 18.92,-3.059 5.71,-2.152 10.59,-4.863 14.53,-8.152 4.01,-3.328 7.03,-6.828 9.14,-10.57 2.13,-3.77 3.15,-7.231 3.15,-10.508 0,-3.293 -1.22,-6.051 -3.53,-8.391 -2.4,-2.289 -5.19,-3.441 -8.61,-3.441 -2.21,0 -4.04,0.66 -5.48,1.82 -1.45,1.16 -3.09,2.981 -4.92,5.668 -3.22,5.102 -6.59,9.004 -10.16,11.613 -3.49,2.528 -7.98,3.891 -13.36,3.891 -7.91,0 -14.21,-3.281 -18.97,-9.613 -4.81,-6.449 -7.18,-15.117 -7.18,-26.25 0,-5.137 0.65,-10.008 1.85,-14.34 1.24,-4.379 3.03,-8.027 5.33,-11.149 2.36,-3.078 5.11,-5.402 8.48,-6.929 3.25,-1.641 6.92,-2.449 10.81,-2.449 5.35,0 9.87,1.289 13.68,3.828 3.74,2.621 7.12,6.539 10.01,11.761 1.64,3.168 3.37,5.571 5.25,7.348 1.88,1.801 4.23,2.563 6.92,2.563 3.23,0 5.92,-1.223 8.04,-3.762 2.12,-2.649 3.17,-5.32 3.17,-8.277" /><path
             id="path100"
             style="fill:#f9f562;fill-opacity:1;fill-rule:nonzero;stroke:none"
             d="m 2647.82,277.699 c 0,-7.449 1.16,-13.82 3.38,-19.121 2.21,-5.277 5.24,-9.18 9.09,-11.859 3.94,-2.699 8.16,-4.047 12.7,-4.047 4.73,0 8.95,1.289 12.8,3.797 3.85,2.543 6.9,6.441 9.24,11.691 2.28,5.192 3.42,11.738 3.42,19.539 0,7.422 -1.14,13.731 -3.42,19.071 -2.34,5.289 -5.43,9.32 -9.33,12.171 -3.91,2.801 -8.19,4.188 -12.85,4.188 -4.81,0 -9.15,-1.457 -13,-4.32 -3.8,-2.848 -6.77,-7.008 -8.85,-12.368 -2.11,-5.41 -3.18,-11.57 -3.18,-18.742 z m 52.08,-40.527 v 2.707 c -3.57,-4.277 -7.07,-7.699 -10.54,-10.348 -3.41,-2.691 -7.17,-4.711 -11.27,-6.109 -3.98,-1.332 -8.42,-2.012 -13.17,-2.012 -6.38,0 -12.28,1.399 -17.63,4.141 -5.39,2.89 -10.11,6.82 -13.99,12.019 -3.95,5.18 -6.98,11.321 -9.02,18.321 -2.06,7.031 -3.05,14.578 -3.05,22.828 0,17.281 4.03,30.812 12.1,40.422 8.14,9.679 18.78,14.468 31.91,14.468 7.65,0 14.12,-1.379 19.36,-4.187 5.2,-2.621 10.34,-6.871 15.3,-12.543 v 40.82 c 0,5.66 1.1,9.961 3.26,12.852 2.18,2.929 5.21,4.371 9.24,4.371 4.01,0 7.08,-1.363 9.3,-4 2.16,-2.66 3.27,-6.59 3.27,-11.781 V 237.172 c 0,-5.281 -1.19,-9.223 -3.52,-11.852 -2.36,-2.621 -5.33,-3.91 -9.05,-3.91 -3.55,0 -6.57,1.289 -8.98,4.051 -2.31,2.711 -3.52,6.559 -3.52,11.711" /><path
             id="path102"
             style="fill:#f9f562;fill-opacity:1;fill-rule:nonzero;stroke:none"
             d="m 2824.15,277.52 c 0,11.21 -2.4,20.031 -7.16,26.32 -4.76,6.262 -11.17,9.449 -19.15,9.449 -5.2,0 -9.71,-1.457 -13.72,-4.25 -3.9,-2.84 -6.97,-6.98 -9.09,-12.43 -2.18,-5.429 -3.22,-11.781 -3.22,-19.089 0,-7.231 1.04,-13.54 3.16,-18.918 2.13,-5.411 5.1,-9.543 9.06,-12.411 3.89,-2.851 8.51,-4.3 13.81,-4.3 7.98,0 14.39,3.14 19.15,9.449 4.76,6.301 7.16,15.039 7.16,26.18 z m 26.57,0 c 0,-8.188 -1.24,-15.809 -3.71,-22.829 -2.45,-6.882 -6,-12.832 -10.62,-17.839 -4.68,-5.063 -10.26,-8.743 -16.7,-11.532 -6.52,-2.621 -13.82,-3.91 -21.85,-3.91 -8.05,0 -15.2,1.289 -21.67,3.981 -6.39,2.718 -11.94,6.589 -16.65,11.597 -4.67,5.043 -8.24,10.973 -10.67,17.801 -2.41,6.883 -3.62,14.43 -3.62,22.75 0,8.391 1.25,16.039 3.66,22.973 2.5,6.98 6.01,12.918 10.58,17.859 4.64,4.899 10.17,8.711 16.7,11.371 6.54,2.688 13.76,4.02 21.67,4.02 8.03,0 15.29,-1.332 21.85,-4.071 6.48,-2.652 12.09,-6.55 16.74,-11.562 4.67,-5 8.23,-10.918 10.63,-17.848 2.46,-6.84 3.66,-14.492 3.66,-22.761" /><path
             id="path104"
             style="fill:#f9f562;fill-opacity:1;fill-rule:nonzero;stroke:none"
             d="m 2962.63,300.371 c -1.98,-4.711 -2.94,-12.941 -2.94,-24.84 V 238.84 c 0,-5.809 -1.26,-10.192 -3.81,-13.102 -2.51,-2.886 -5.88,-4.328 -10,-4.328 -4,0 -7.23,1.442 -9.69,4.328 -2.5,2.91 -3.75,7.293 -3.75,13.102 v 44.058 c 0,6.942 -0.25,12.313 -0.71,16.231 -0.45,3.781 -1.71,6.961 -3.67,9.449 -1.98,2.473 -5.2,3.723 -9.49,3.723 -8.64,0 -14.33,-3.082 -17.12,-9.391 -2.75,-6.14 -4.09,-15.101 -4.09,-26.711 V 238.84 c 0,-5.809 -1.26,-10.192 -3.75,-13.008 -2.49,-2.98 -5.78,-4.422 -9.83,-4.422 -4.05,0 -7.35,1.442 -9.86,4.422 -2.61,2.816 -3.81,7.199 -3.81,12.938 v 79.16 c 0,5.211 1.11,9.152 3.37,11.851 2.35,2.688 5.34,4.09 9.11,4.09 3.61,0 6.63,-1.289 9.09,-3.812 2.4,-2.539 3.61,-6.02 3.61,-10.477 v -2.684 c 4.58,5.813 9.52,9.981 14.72,12.684 5.24,2.699 11.11,4.027 17.47,4.027 6.69,0 12.37,-1.379 17.19,-4.187 4.81,-2.66 8.7,-6.91 11.78,-12.524 4.49,5.653 9.3,9.954 14.39,12.641 5.14,2.742 10.79,4.07 16.96,4.07 7.3,0 13.52,-1.379 18.74,-4.418 5.27,-2.98 9.15,-7.211 11.76,-12.789 2.27,-5.011 3.41,-12.871 3.41,-23.582 v -53.98 c 0,-5.809 -1.29,-10.192 -3.74,-13.102 -2.61,-2.886 -5.89,-4.328 -10.06,-4.328 -4,0 -7.28,1.442 -9.83,4.422 -2.58,2.816 -3.89,7.199 -3.89,13.008 v 46.469 c 0,5.961 -0.2,10.73 -0.67,14.3 -0.53,3.61 -1.82,6.59 -3.95,9.039 -2.11,2.403 -5.38,3.653 -9.72,3.653 -3.48,0 -6.8,-1.09 -9.87,-3.211 -3.23,-2.231 -5.65,-5.059 -7.35,-8.719 v 0" /><path
             id="path106"
             style="fill:#f9f562;fill-opacity:1;fill-rule:nonzero;stroke:none"
             d="m 3112.68,276.969 c -3.95,-1.489 -9.56,-3.059 -16.99,-4.719 -7.41,-1.668 -12.56,-2.879 -15.4,-3.641 -2.83,-0.808 -5.53,-2.32 -8.13,-4.539 -2.61,-2.289 -3.91,-5.468 -3.91,-9.519 0,-4.219 1.55,-7.809 4.59,-10.719 3.01,-2.941 7.02,-4.434 11.92,-4.434 5.25,0 10.11,1.25 14.54,3.665 4.43,2.335 7.71,5.488 9.72,9.277 2.41,4.14 3.66,11.012 3.66,20.691 z m 1.69,-40.039 c -6.41,-5.188 -12.61,-9.09 -18.59,-11.649 -5.98,-2.621 -12.7,-3.871 -20.11,-3.871 -6.84,0 -12.75,1.399 -17.91,4.141 -5.19,2.769 -9.14,6.629 -11.94,11.437 -2.74,4.782 -4.18,9.961 -4.18,15.594 0,7.559 2.36,13.949 6.94,19.348 4.57,5.312 10.86,8.851 18.86,10.742 1.72,0.391 5.92,1.25 12.56,2.637 6.69,1.492 12.39,2.793 17.18,3.953 4.71,1.148 9.92,2.578 15.5,4.269 -0.39,7.328 -1.77,12.668 -4.24,16.129 -2.49,3.371 -7.69,5.059 -15.49,5.059 -6.75,0 -11.8,-0.969 -15.25,-2.938 -3.39,-1.953 -6.26,-4.922 -8.72,-8.871 -2.41,-3.898 -4.09,-6.441 -5.1,-7.699 -1.06,-1.289 -3.17,-1.82 -6.46,-1.82 -3.02,0 -5.57,0.968 -7.69,2.941 -2.21,1.957 -3.32,4.527 -3.32,7.699 0,4.871 1.69,9.571 4.99,14.098 3.29,4.621 8.44,8.383 15.42,11.41 6.95,2.973 15.69,4.422 26.13,4.422 11.65,0 20.79,-1.449 27.46,-4.27 6.67,-2.839 11.32,-7.382 14.07,-13.621 2.79,-6.242 4.18,-14.449 4.18,-24.691 0,-6.508 0,-12.039 -0.05,-16.559 -0.07,-4.531 -0.07,-9.558 -0.18,-15.121 0,-5.148 0.87,-10.64 2.5,-16.199 1.6,-5.648 2.44,-9.281 2.44,-10.879 0,-2.851 -1.28,-5.43 -3.85,-7.762 -2.49,-2.308 -5.38,-3.449 -8.65,-3.449 -2.69,0 -5.34,1.289 -8.08,3.91 -2.6,2.719 -5.45,6.571 -8.42,11.61" /><path
             id="path108"
             style="fill:#f9f562;fill-opacity:1;fill-rule:nonzero;stroke:none"
             d="m 3192.08,318.02 v -79.821 c 0,-5.578 -1.29,-9.758 -3.79,-12.609 -2.51,-2.738 -5.75,-4.18 -9.58,-4.18 -3.9,0 -7.07,1.442 -9.49,4.262 -2.46,2.976 -3.64,7.066 -3.64,12.527 v 79.063 c 0,5.449 1.19,9.59 3.64,12.32 2.42,2.777 5.59,4.18 9.49,4.18 3.83,0 7.07,-1.403 9.58,-4.18 2.5,-2.73 3.79,-6.59 3.79,-11.562 z m -13.14,28.66 c -3.65,0 -6.78,1.14 -9.42,3.539 -2.61,2.371 -3.94,5.793 -3.94,10.07 0,3.883 1.33,7.121 4.09,9.68 2.63,2.543 5.76,3.75 9.27,3.75 3.43,0 6.51,-1.117 9.14,-3.418 2.65,-2.25 4,-5.692 4,-10.012 0,-4.277 -1.29,-7.609 -3.9,-9.98 -2.59,-2.411 -5.67,-3.629 -9.24,-3.629" /><path
             id="path110"
             style="fill:#f9f562;fill-opacity:1;fill-rule:nonzero;stroke:none"
             d="m 3243.54,318.461 v -3.301 c 4.61,6.379 9.71,11.09 15.23,14.09 5.57,2.98 11.85,4.512 19.13,4.512 6.91,0 13.16,-1.532 18.73,-4.801 5.43,-3.121 9.61,-7.609 12.3,-13.391 1.75,-3.39 2.85,-7.07 3.37,-10.949 0.47,-3.922 0.81,-8.93 0.81,-14.969 v -51.453 c 0,-5.578 -1.29,-9.758 -3.65,-12.609 -2.44,-2.738 -5.63,-4.18 -9.48,-4.18 -3.9,0 -7.1,1.442 -9.53,4.328 -2.46,2.91 -3.75,7 -3.75,12.461 v 46 c 0,9.192 -1.17,16.172 -3.56,21 -2.5,4.793 -7.38,7.192 -14.65,7.192 -4.66,0 -8.93,-1.442 -12.83,-4.422 -3.89,-2.887 -6.74,-6.93 -8.54,-12.078 -1.29,-4.09 -1.94,-11.782 -1.94,-23.153 v -34.539 c 0,-5.648 -1.26,-9.879 -3.77,-12.648 -2.5,-2.742 -5.74,-4.141 -9.62,-4.141 -3.8,0 -6.99,1.442 -9.43,4.262 -2.51,2.976 -3.69,7.066 -3.69,12.527 l -0.03,79.821 c 0,5.339 1.12,9.199 3.33,11.839 2.17,2.61 5.26,3.903 9.06,3.903 2.3,0 4.43,-0.621 6.25,-1.731 1.92,-1.09 3.36,-2.89 4.53,-5.152 1.1,-2.289 1.73,-5.09 1.73,-8.418" /><path
             id="path112"
             style="fill:#f9f562;fill-opacity:1;fill-rule:nonzero;stroke:none"
             d="m 3355.61,316.531 21.42,-62.761 23.09,65.5 c 1.83,5.32 3.63,8.949 5.35,11.23 1.78,2.172 4.43,3.262 7.93,3.262 3.38,0 6.27,-1.18 8.69,-3.551 2.3,-2.359 3.52,-5.051 3.52,-8.231 0,-1.199 -0.26,-2.609 -0.69,-4.199 -0.39,-1.64 -0.86,-3.172 -1.44,-4.621 -0.53,-1.379 -1.12,-3.019 -1.9,-4.789 l -25.39,-65.84 c -0.72,-1.883 -1.7,-4.332 -2.79,-7.222 -1.15,-2.918 -2.38,-5.317 -3.75,-7.469 -1.45,-2.008 -3.15,-3.61 -5.16,-4.738 -2.07,-1.172 -4.57,-1.692 -7.46,-1.692 -3.75,0 -6.74,0.86 -9,2.641 -2.25,1.781 -3.91,3.699 -4.94,5.847 -1.08,2.122 -2.84,6.313 -5.39,12.633 l -25.24,65.09 c -0.62,1.598 -1.17,3.238 -1.87,4.879 -0.57,1.582 -1.02,3.219 -1.49,4.969 -0.39,1.672 -0.62,3.121 -0.62,4.32 0,1.922 0.52,3.793 1.64,5.621 1.09,1.891 2.69,3.422 4.55,4.578 1.99,1.153 4.06,1.774 6.35,1.774 4.39,0 7.38,-1.293 9.04,-3.981 1.66,-2.609 3.53,-7.031 5.55,-13.25" /><path
             id="path114"
             style="fill:#f9f562;fill-opacity:1;fill-rule:nonzero;stroke:none"
             d="m 3464,286.512 h 48.03 c -0.6,9.418 -3.08,16.519 -7.38,21.179 -4.22,4.661 -9.81,7.028 -16.68,7.028 -6.6,0 -12.03,-2.367 -16.27,-7.137 -4.24,-4.711 -6.78,-11.781 -7.7,-21.07 z m 51.82,-15.692 H 3464 c 0,-6.351 1.25,-11.851 3.54,-16.711 2.48,-4.711 5.59,-8.339 9.49,-10.769 3.89,-2.449 8.22,-3.649 12.95,-3.649 3.18,0 6.07,0.368 8.69,1.141 2.64,0.828 5.18,2.008 7.7,3.668 2.38,1.621 4.59,3.352 6.72,5.34 2.03,1.89 4.8,4.39 8.02,7.652 1.41,1.238 3.34,1.84 5.82,1.84 2.78,0 4.96,-0.73 6.62,-2.332 1.7,-1.531 2.54,-3.738 2.54,-6.52 0,-2.519 -0.95,-5.449 -2.85,-8.82 -1.85,-3.328 -4.67,-6.551 -8.47,-9.64 -3.77,-3.079 -8.56,-5.571 -14.26,-7.649 -5.71,-2.031 -12.25,-2.961 -19.73,-2.961 -17.07,0 -30.31,5.039 -39.67,15.102 -9.45,10.207 -14.16,23.91 -14.16,41.187 0,8.27 1.16,15.832 3.46,22.793 2.38,7 5.72,13.028 10.22,17.969 4.41,5.019 9.92,8.91 16.46,11.508 6.58,2.703 13.79,3.992 21.78,3.992 10.27,0 19.16,-2.25 26.58,-6.832 7.4,-4.578 12.99,-10.379 16.64,-17.598 3.71,-7.269 5.53,-14.609 5.53,-22.14 0,-6.961 -1.86,-11.469 -5.67,-13.481 -3.88,-2.078 -9.2,-3.09 -16.13,-3.09" /><path
             id="path116"
             style="fill:#f9f562;fill-opacity:1;fill-rule:nonzero;stroke:none"
             d="m 3655.02,255.563 c 0,-3.391 -1.02,-7.071 -3.01,-10.973 -2.01,-3.942 -4.94,-7.66 -9.04,-11.211 -3.99,-3.527 -9.12,-6.391 -15.29,-8.52 -6.12,-2.199 -13.11,-3.277 -20.75,-3.277 -16.4,0 -29.16,4.988 -38.3,14.93 -9.18,9.957 -13.83,23.289 -13.83,40.039 0,11.301 2.09,21.418 6.31,30.09 4.24,8.64 10.26,15.429 18.25,20.211 7.94,4.738 17.46,7.109 28.51,7.109 6.92,0 13.17,-1.051 18.93,-3.059 5.68,-2.152 10.54,-4.863 14.53,-8.152 4,-3.328 7.05,-6.828 9.16,-10.57 2.07,-3.77 3.12,-7.231 3.12,-10.508 0,-3.293 -1.15,-6.051 -3.61,-8.391 -2.32,-2.289 -5.14,-3.441 -8.52,-3.441 -2.2,0 -4.04,0.66 -5.43,1.82 -1.5,1.16 -3.12,2.981 -4.96,5.668 -3.22,5.102 -6.6,9.004 -10.09,11.613 -3.58,2.528 -8.07,3.891 -13.5,3.891 -7.79,0 -14.14,-3.281 -18.91,-9.613 -4.8,-6.449 -7.18,-15.117 -7.18,-26.25 0,-5.137 0.64,-10.008 1.83,-14.34 1.25,-4.379 3.05,-8.027 5.35,-11.149 2.37,-3.078 5.14,-5.402 8.48,-6.929 3.2,-1.641 6.89,-2.449 10.8,-2.449 5.31,0 9.92,1.289 13.69,3.828 3.75,2.621 7.11,6.539 10.06,11.761 1.58,3.168 3.36,5.571 5.26,7.348 1.81,1.801 4.12,2.563 6.87,2.563 3.18,0 5.9,-1.223 7.99,-3.762 2.17,-2.649 3.28,-5.32 3.28,-8.277" /><path
             id="path118"
             style="fill:#f9f562;fill-opacity:1;fill-rule:nonzero;stroke:none"
             d="m 3679.61,331.402 h 2.93 v 16.68 c 0,4.359 0.08,7.93 0.33,10.457 0.24,2.52 0.82,4.691 1.88,6.531 1.01,1.86 2.55,3.399 4.49,4.602 1.89,1.16 4.06,1.73 6.48,1.73 3.32,0 6.39,-1.343 9.1,-3.902 1.78,-1.82 2.93,-3.949 3.4,-6.441 0.55,-2.52 0.74,-6.168 0.74,-10.84 v -18.817 h 9.77 c 3.73,0 6.58,-0.902 8.57,-2.793 2.02,-1.808 2.99,-4.179 2.99,-7.07 0,-3.758 -1.42,-6.379 -4.29,-7.828 -2.74,-1.441 -6.8,-2.242 -12.05,-2.242 h -4.99 v -50.887 c 0,-4.34 0.14,-7.672 0.47,-10.012 0.3,-2.371 1.14,-4.25 2.37,-5.629 1.25,-1.511 3.28,-2.269 6.19,-2.269 1.5,0 3.57,0.277 6.27,0.906 2.62,0.531 4.67,0.813 6.21,0.813 2.13,0 4.08,-0.891 5.76,-2.621 1.7,-1.801 2.58,-4.008 2.58,-6.661 0,-4.418 -2.29,-7.847 -6.95,-10.199 -4.77,-2.359 -11.41,-3.5 -20.12,-3.5 -8.28,0 -14.55,1.442 -18.85,4.328 -4.24,2.91 -7.07,6.883 -8.38,12.063 -1.35,5.148 -1.97,12 -1.97,20.539 v 53.129 h -3.58 c -3.75,0 -6.66,0.922 -8.65,2.851 -2.03,1.91 -3.02,4.289 -3.02,7.219 0,2.891 1.05,5.262 3.12,7.07 2.13,1.891 5.22,2.793 9.2,2.793" /><path
             id="path120"
             style="fill:#f9f562;fill-opacity:1;fill-rule:nonzero;stroke:none"
             d="m 3821.05,277.52 c 0,11.21 -2.44,20.031 -7.14,26.32 -4.81,6.262 -11.16,9.449 -19.2,9.449 -5.14,0 -9.71,-1.457 -13.66,-4.25 -3.94,-2.84 -6.99,-6.98 -9.08,-12.43 -2.18,-5.429 -3.24,-11.781 -3.24,-19.089 0,-7.231 1.06,-13.54 3.16,-18.918 2.13,-5.411 5.12,-9.543 9.01,-12.411 3.9,-2.851 8.48,-4.3 13.81,-4.3 8.04,0 14.39,3.14 19.2,9.449 4.7,6.301 7.14,15.039 7.14,26.18 z m 26.61,0 c 0,-8.188 -1.25,-15.809 -3.75,-22.829 -2.41,-6.882 -6.02,-12.832 -10.67,-17.839 -4.63,-5.063 -10.21,-8.743 -16.68,-11.532 -6.42,-2.621 -13.67,-3.91 -21.85,-3.91 -8.03,0 -15.26,1.289 -21.64,3.981 -6.37,2.718 -11.94,6.589 -16.62,11.597 -4.65,5.043 -8.23,10.973 -10.63,17.801 -2.46,6.883 -3.65,14.43 -3.65,22.75 0,8.391 1.19,16.039 3.65,22.973 2.5,6.98 5.98,12.918 10.59,17.859 4.61,4.899 10.15,8.711 16.66,11.371 6.62,2.688 13.81,4.02 21.64,4.02 8.04,0 15.31,-1.332 21.85,-4.071 6.55,-2.652 12.13,-6.55 16.8,-11.562 4.61,-5 8.22,-10.918 10.64,-17.848 2.41,-6.84 3.66,-14.492 3.66,-22.761" /><path
             id="path122"
             style="fill:#f9f562;fill-opacity:1;fill-rule:nonzero;stroke:none"
             d="m 3894.8,261.191 v -22.992 c 0,-5.648 -1.25,-9.879 -3.73,-12.648 -2.57,-2.742 -5.78,-4.141 -9.64,-4.141 -3.77,0 -6.98,1.442 -9.42,4.18 -2.44,2.851 -3.67,7.031 -3.67,12.609 v 76.961 c 0,12.41 4.28,18.602 12.91,18.602 4.32,0 7.56,-1.481 9.53,-4.34 1.93,-2.91 2.93,-7.192 3.18,-12.891 3.17,5.699 6.43,9.981 9.77,12.891 3.3,2.859 7.73,4.34 13.28,4.34 5.63,0 10.98,-1.481 16.27,-4.34 5.22,-2.91 7.87,-6.781 7.87,-11.582 0,-3.371 -1.19,-6.168 -3.42,-8.309 -2.16,-2.203 -4.6,-3.332 -7.18,-3.332 -1,0 -3.36,0.66 -7.11,1.922 -3.69,1.25 -6.96,1.871 -9.85,1.871 -3.84,0 -7.05,-1.051 -9.43,-3.222 -2.48,-2.149 -4.37,-5.239 -5.74,-9.442 -1.39,-4.219 -2.37,-9.199 -2.81,-15.019 -0.51,-5.707 -0.81,-12.739 -0.81,-21.118" /><path
             id="path124"
             style="fill:#f9f562;fill-opacity:1;fill-rule:nonzero;stroke:none"
             d="m 4035.92,257.492 c 0,-7.652 -1.72,-14.152 -5.35,-19.64 -3.6,-5.461 -8.85,-9.532 -15.77,-12.301 -7.01,-2.742 -15.41,-4.141 -25.41,-4.141 -9.49,0 -17.65,1.488 -24.51,4.512 -6.79,3.019 -11.79,6.816 -15.02,11.359 -3.2,4.578 -4.9,9.11 -4.9,13.711 0,3.028 1.08,5.617 3.18,7.738 2.07,2.219 4.69,3.29 7.86,3.29 2.79,0 4.88,-0.719 6.4,-2.129 1.53,-1.442 2.89,-3.45 4.28,-5.95 2.71,-4.972 5.96,-8.671 9.77,-11.101 3.75,-2.449 8.94,-3.629 15.48,-3.629 5.3,0 9.63,1.238 13.05,3.699 3.36,2.449 5.16,5.289 5.16,8.43 0,4.902 -1.84,8.461 -5.3,10.629 -3.57,2.312 -9.35,4.41 -17.5,6.402 -9.08,2.399 -16.54,4.899 -22.26,7.461 -5.72,2.66 -10.35,6.059 -13.77,10.289 -3.4,4.25 -5.14,9.5 -5.14,15.68 0,5.597 1.6,10.84 4.77,15.699 3.18,4.961 7.89,8.91 14.04,11.84 6.17,2.941 13.61,4.422 22.36,4.422 6.92,0 13.07,-0.762 18.56,-2.211 5.43,-1.492 10.08,-3.5 13.65,-5.969 3.67,-2.543 6.47,-5.281 8.32,-8.32 1.97,-3.071 2.91,-6.032 2.91,-8.891 0,-3.172 -1.01,-5.742 -3.08,-7.859 -2.04,-1.934 -4.97,-2.961 -8.68,-2.961 -2.73,0 -5,0.738 -6.97,2.429 -1.89,1.602 -4.1,4.051 -6.54,7.231 -1.97,2.687 -4.34,4.828 -7.07,6.5 -2.78,1.57 -6.41,2.43 -11.1,2.43 -4.74,0 -8.79,-1.051 -11.91,-3.2 -3.18,-2.14 -4.77,-4.769 -4.77,-7.949 0,-2.933 1.18,-5.293 3.44,-7.16 2.36,-1.832 5.51,-3.371 9.47,-4.641 4.01,-1.203 9.42,-2.691 16.31,-4.461 8.23,-2.058 14.96,-4.531 20.16,-7.468 5.21,-2.891 9.16,-6.301 11.82,-10.282 2.77,-3.968 4.06,-8.429 4.06,-13.488" /><path
             id="path126"
             style="fill:#f9f562;fill-opacity:1;fill-rule:nonzero;stroke:none"
             d="m 4066.04,221.41 c -4.03,0 -7.5,1.289 -10.38,3.981 -2.93,2.718 -4.37,6.5 -4.37,11.371 0,4.09 1.33,7.629 4.12,10.558 2.75,3.012 6.23,4.43 10.29,4.43 4.07,0 7.56,-1.418 10.35,-4.359 2.95,-2.891 4.4,-6.5 4.4,-10.629 0,-4.832 -1.45,-8.59 -4.4,-11.301 -2.79,-2.762 -6.17,-4.051 -10.01,-4.051" /><path
             id="path128"
             style="fill:#f9f562;fill-opacity:1;fill-rule:nonzero;stroke:none"
             d="m 4183.18,277.52 c 0,11.21 -2.4,20.031 -7.14,26.32 -4.79,6.262 -11.16,9.449 -19.16,9.449 -5.16,0 -9.69,-1.457 -13.62,-4.25 -4.02,-2.84 -7.03,-6.98 -9.16,-12.43 -2.13,-5.429 -3.16,-11.781 -3.16,-19.089 0,-7.231 0.99,-13.54 3.1,-18.918 2.11,-5.411 5.12,-9.543 9.07,-12.411 3.88,-2.851 8.51,-4.3 13.77,-4.3 8,0 14.37,3.14 19.16,9.449 4.74,6.301 7.14,15.039 7.14,26.18 z m 26.62,0 c 0,-8.188 -1.19,-15.809 -3.76,-22.829 -2.45,-6.882 -5.94,-12.832 -10.61,-17.839 -4.69,-5.063 -10.16,-8.743 -16.72,-11.532 -6.44,-2.621 -13.71,-3.91 -21.83,-3.91 -7.99,0 -15.22,1.289 -21.63,3.981 -6.4,2.718 -11.91,6.589 -16.6,11.597 -4.76,5.043 -8.28,10.973 -10.74,17.801 -2.38,6.883 -3.61,14.43 -3.61,22.75 0,8.391 1.23,16.039 3.67,22.973 2.56,6.98 5.98,12.918 10.58,17.859 4.58,4.899 10.16,8.711 16.7,11.371 6.53,2.688 13.71,4.02 21.63,4.02 8,0 15.27,-1.332 21.83,-4.071 6.56,-2.652 12.13,-6.55 16.8,-11.562 4.67,-5 8.16,-10.918 10.68,-17.848 2.42,-6.84 3.61,-14.492 3.61,-22.761" /><path
             id="path130"
             style="fill:#f9f562;fill-opacity:1;fill-rule:nonzero;stroke:none"
             d="m 4256.97,261.191 v -22.992 c 0,-5.648 -1.25,-9.879 -3.77,-12.648 -2.5,-2.742 -5.72,-4.141 -9.57,-4.141 -3.88,0 -6.99,1.442 -9.47,4.18 -2.48,2.851 -3.63,7.031 -3.63,12.609 v 76.961 c 0,12.41 4.29,18.602 12.87,18.602 4.41,0 7.58,-1.481 9.47,-4.34 1.93,-2.91 3.09,-7.192 3.28,-12.891 3.13,5.699 6.35,9.981 9.67,12.891 3.36,2.859 7.85,4.34 13.32,4.34 5.7,0 11.07,-1.481 16.27,-4.34 5.22,-2.91 7.91,-6.781 7.91,-11.582 0,-3.371 -1.17,-6.168 -3.38,-8.309 -2.24,-2.203 -4.61,-3.332 -7.26,-3.332 -0.94,0 -3.29,0.66 -7,1.922 -3.73,1.25 -6.99,1.871 -9.9,1.871 -3.85,0 -7.01,-1.051 -9.53,-3.222 -2.4,-2.149 -4.34,-5.239 -5.66,-9.442 -1.37,-4.219 -2.33,-9.199 -2.86,-15.019 -0.48,-5.707 -0.76,-12.739 -0.76,-21.118" /><path
             id="path132"
             style="fill:#f9f562;fill-opacity:1;fill-rule:nonzero;stroke:none"
             d="m 4333.48,278.492 c 0,-11.211 2.32,-19.711 7.03,-25.472 4.67,-5.7 10.78,-8.629 18.14,-8.629 4.4,0 8.62,1.32 12.5,3.738 3.91,2.519 7.13,6.191 9.57,11.152 2.48,5 3.69,11.008 3.69,18.078 0,11.282 -2.44,20.039 -7.14,26.34 -4.75,6.293 -11.02,9.43 -18.73,9.43 -7.58,0 -13.66,-3.027 -18.19,-9.008 -4.61,-6.058 -6.87,-14.582 -6.87,-25.629 z m 76.75,35.028 v -80.34 c 0,-9.192 -0.97,-17.141 -2.81,-23.66 -1.89,-6.7 -4.94,-12.129 -9,-16.481 -4.16,-4.277 -9.65,-7.488 -16.29,-9.617 -6.68,-2.012 -15,-3.063 -24.96,-3.063 -9.14,0 -17.31,1.289 -24.46,3.922 -7.22,2.75 -12.75,6.129 -16.6,10.418 -3.88,4.16 -5.86,8.512 -5.86,12.981 0,3.429 1.1,6.152 3.3,8.281 2.21,2.121 4.87,3.238 7.95,3.238 3.91,0 7.27,-1.847 10.22,-5.41 1.44,-1.891 2.93,-3.699 4.41,-5.519 1.49,-1.879 3.17,-3.481 5.06,-4.77 1.82,-1.359 4.08,-2.301 6.68,-2.98 2.52,-0.641 5.53,-0.961 8.91,-0.961 6.83,0 12.2,1.05 15.97,3.023 3.75,1.969 6.41,4.77 7.95,8.277 1.49,3.602 2.46,7.411 2.62,11.481 0.31,4.14 0.45,10.723 0.64,19.762 -4.08,-5.891 -8.84,-10.454 -14.14,-13.543 -5.29,-3.098 -11.69,-4.61 -19,-4.61 -8.96,0 -16.7,2.321 -23.3,7.071 -6.64,4.718 -11.76,11.308 -15.29,19.902 -3.54,8.41 -5.35,18.258 -5.35,29.418 0,8.34 1.03,15.832 3.24,22.531 2.13,6.66 5.21,12.289 9.31,16.91 3.93,4.551 8.62,8 13.85,10.371 5.26,2.317 10.94,3.457 17.29,3.457 7.46,0 14,-1.468 19.49,-4.507 5.53,-3 10.58,-7.75 15.31,-14.141 v 3.758 c 0,4.801 1.21,8.453 3.4,11.211 2.27,2.582 5.19,3.941 8.73,3.941 5.14,0 8.55,-1.73 10.23,-5.262 1.66,-3.449 2.5,-8.507 2.5,-15.089" /><path
             id="path134"
             style="fill:#f9f562;fill-opacity:1;fill-rule:nonzero;stroke:none"
             d="m 3262.01,582.77 h 39.32 c -2.79,-21.239 -11.44,-37.739 -25.94,-49.61 -13.38,-11.699 -29.56,-17.422 -48.46,-17.422 -25.65,0 -46.1,8.981 -61.41,26.992 -14.48,17.122 -21.73,39.231 -21.73,66.211 0,27.618 7.19,49.758 21.54,66.528 14.29,16.64 34.61,25.031 60.73,25.031 19.48,0 35.95,-5.27 49.33,-15.711 14.2,-11.309 22.86,-27.18 25.94,-47.5 h -39.32 c -3.36,17.731 -14.25,26.582 -32.66,26.582 -30.38,0 -45.58,-18 -45.58,-54 0,-16.891 3.87,-30.66 11.73,-41.391 7.81,-10.769 18.83,-16.191 33.03,-16.191 21.17,0 32.32,10.172 33.48,30.481 z m -154.72,24.789 c 0,-35.188 11.16,-64.977 33.45,-89.168 22.26,-24.309 49.57,-36.442 81.97,-36.442 32.23,0 59.56,12.133 81.86,36.442 22.27,24.191 33.4,53.98 33.4,89.168 0,35.14 -11.13,64.863 -33.4,89.121 -22.3,24.332 -49.63,36.441 -81.86,36.441 -32.4,0 -59.71,-12.109 -81.97,-36.441 -22.29,-24.258 -33.45,-53.981 -33.45,-89.121 z m -39.91,0 c 0,44.742 15.17,82.91 45.49,114.703 30.33,31.66 66.93,47.488 109.84,47.488 42.82,0 79.35,-15.828 109.75,-47.488 30.33,-31.793 45.55,-69.961 45.55,-114.703 0,-44.75 -15.22,-83 -45.55,-114.719 -30.4,-31.68 -66.93,-47.578 -109.75,-47.578 -42.88,0 -79.51,15.898 -109.83,47.578 -30.33,31.719 -45.5,69.969 -45.5,114.719" /><path
             id="path136"
             style="fill:#f9f562;fill-opacity:1;fill-rule:nonzero;stroke:none"
             d="M 3130.25,505.82 3152.86,486.602 3319.43,700.5 3296.8,719.699 3130.25,505.82" /></g></g></g></g></svg>