<?xml version="1.0" encoding="UTF-8" standalone="no"?>
<svg
   xmlns:dc="http://purl.org/dc/elements/1.1/"
   xmlns:cc="http://creativecommons.org/ns#"
   xmlns:rdf="http://www.w3.org/1999/02/22-rdf-syntax-ns#"
   xmlns:svg="http://www.w3.org/2000/svg"
   xmlns="http://www.w3.org/2000/svg"
   viewBox="0 0 877.28003 877.28003"
   height="877.28003"
   width="877.28003"
   xml:space="preserve"
   id="svg2"
   version="1.1"><metadata
     id="metadata8"><rdf:RDF><cc:Work
         rdf:about=""><dc:format>image/svg+xml</dc:format><dc:type
           rdf:resource="http://purl.org/dc/dcmitype/StillImage" /></cc:Work></rdf:RDF></metadata><defs
     id="defs6"><clipPath
       id="clipPath20"
       clipPathUnits="userSpaceOnUse"><path
         id="path18"
         d="M 0,6579.57 V 0 h 6579.57 v 6579.57 z" /></clipPath></defs><g
     transform="matrix(1.3333333,0,0,-1.3333333,0,877.28)"
     id="g10"><g
       transform="scale(0.1)"
       id="g12"><g
         id="g14"><g
           clip-path="url(#clipPath20)"
           id="g16"><path
             id="path22"
             style="fill:#a2c8ec;fill-opacity:1;fill-rule:evenodd;stroke:none"
             d="M 0,0 H 6579.57 V 6579.57 H 0 Z" /><path
             id="path24"
             style="fill:#c1dff5;fill-opacity:1;fill-rule:evenodd;stroke:none"
             d="m 6579.57,3672.1 c -1093.1,-80.13 -1618.54,-69 -2715.37,257.42 -497.38,148.02 -524.95,159.76 -1049.92,109.54 -166.6,-16.26 -332.82,-33.94 -499.19,-52.51 -168.27,-16.91 -351.59,-24.79 -514.89,-66.99 -234.11,-60.48 -245.41,-121.37 -317.05,-320.45 l -19.55,-41.13 c -72.89,-89.3 -126.89,-99.06 -234.33,-134.76 C 1122.75,3386 1013.67,3337.56 907.402,3305.37 605.715,3213.96 389.574,3425.46 170.273,3252.11 99.457,3196.12 54.6914,3073.71 0,2982.93 v -415.06 c 68.2813,35.64 145.941,45.08 238.09,-39.76 233.64,-215.08 355.836,-329.58 665.797,-440.77 142.603,-51.16 537.083,-118.53 579.133,-257.88 36.16,-119.87 -244.81,-443.4 332.64,-240.64 0.66,27.05 3.77,46.26 -20.03,62.46 -112.7,76.81 192,282.02 6.51,451.66 -155.9,142.56 -705.29,175.03 -978.722,329.68 -299.91,169.64 -281.871,322.24 -399.469,590.68 -27.519,58.27 -131.863,168.56 -104.469,196 80.95,81.01 303.247,-91.04 365.817,-140.41 112.668,-86.71 188.004,-152.5 332.903,-173.97 184.03,-27.27 450.48,-136 635.37,-202.97 715.66,-259.15 508.3,-478.11 1406.16,-453.28 891.35,24.65 -435.56,445.44 -591.49,498.26 -571.21,193.44 519.84,135.57 585.09,133.96 878.82,-15.05 1706.21,-39.31 2571.85,-204.15 305.94,-58.26 589.21,-153.08 897.77,-95.32 10.89,2.21 30.92,6.49 56.62,12.53 v 307.09 c -153.43,16.92 -311.75,24.63 -393.29,29.32 -552.44,31.77 -1047.24,110.32 -1589.72,169.59 -278.23,30.4 -841.53,50.58 -1047.64,222.08 -86.13,71.66 556.29,43.82 583.61,42.3 611.59,-33.96 1140.36,-99.01 1762.26,-86.41 215.6,5.04 452.75,10.21 684.78,19.53 z m 0,498.04 v -125.33 c -163.09,53.68 -232.62,104.87 0,125.33 v 0" /><path
             id="path26"
             style="fill:#6e9dd9;fill-opacity:1;fill-rule:evenodd;stroke:none"
             d="M 0,2808.02 418.496,3226.51 1485.39,2159.63 V 123.352 L 0,167.852 V 2808.02" /><path
             id="path28"
             style="fill:#dfeefa;fill-opacity:1;fill-rule:evenodd;stroke:none"
             d="M 0,722.48 54.3789,697.352 0,668.73 Z M 0,1862.41 251.199,1740.5 0,1626.87 Z M 418.496,3226.51 93.7383,2665.57 516.902,2439.23 0,2232.46 v 575.56 l 418.496,418.49 v 0" /><path
             id="path30"
             style="fill:#6e9dd9;fill-opacity:1;fill-rule:evenodd;stroke:none"
             d="M 2530.82,845.668 5512.69,3827.52 6579.57,2760.63 V 724.359 L 2530.82,845.668" /><path
             id="path32"
             style="fill:#5580bc;fill-opacity:1;fill-rule:evenodd;stroke:none"
             d="m 6579.57,1813.54 v -81.95 l -1106.84,109.18 317.5,188.81 -345.43,154.65 332.15,63.06 -398.57,252.22 188.65,36.62 -196.63,161.49 390.6,-197.59 -100.97,-68.89 488.93,-274.34 -167.42,-8.72 598.03,-334.54" /><path
             id="path34"
             style="fill:#dfeefa;fill-opacity:1;fill-rule:evenodd;stroke:none"
             d="M 5512.69,3827.52 5187.93,3266.57 5611.09,3040.23 4676.19,2666.27 5345.38,2341.5 4105.41,1780.58 5148.55,1298.36 3465.74,412.66 2580.04,894.871 5512.69,3827.52" /><path
             id="path36"
             style="fill:#85b2e3;fill-opacity:1;fill-rule:evenodd;stroke:none"
             d="M 281.703,6579.57 H 6579.57 v -105.04 c -409.9,-36.05 -792.31,-66.14 -925.89,-80.33 -64.43,-6.7 -944.45,-89.4 -821.88,-207.69 242.58,-194.6 1326.51,-190.16 1701.35,-221 15.64,-1.28 31.08,-2.57 46.42,-3.86 v -460.18 c -585.39,-16.39 -1033.88,-88.35 -1642.46,-289.18 -656.93,-216.79 -837.55,-180 -1531.43,-159.69 -453.64,13.46 -369.86,7.32 -780.01,-95.99 C 2021.4,4808.19 1032.78,4694.93 415.242,4801.72 297.004,4822.16 152.438,4857.88 0,4896.16 v 122.95 c 299.238,-71.39 568.344,-125.36 970.48,-101 527.34,31.66 1388.02,217.49 1827.19,447.55 497.5,260.62 556.41,201.6 1133.05,160.53 177.35,-12.63 351.96,-23.52 529.92,-28.11 68.79,-1.47 522.55,19.91 521.03,85.43 -100.16,28.07 -262.2,58.41 -374.28,83.83 -329.81,72.39 -1099.1,190.98 -1415.06,138.56 -320.55,-53.19 -550.58,-240.26 -874.29,-331.15 -76.88,-21.6 -530.06,-134.04 -564.52,-42.55 -16.45,43.67 278.31,384.42 -48.53,424.18 C 1353.62,5877.95 445.293,5558.16 15.7773,5526.87 L 0,5525.75 v 523.71 c 27.4375,-4.41 54.9648,-8.76 82.5938,-13.07 389.6332,-58.99 827.6762,-20.89 1199.3262,100.32 137.46,44.84 -125.37,92.48 -197.3,119.22 -130.819,48.66 -270.952,128.6 -414.722,185.08 -122.757,48.21 -254.515,94.88 -388.195,138.56" /><path
             id="path38"
             style="fill:#5c89c5;fill-opacity:1;fill-rule:evenodd;stroke:none"
             d="M 198.223,1352.75 3014,4107.03 3180.07,4334.61 6346.15,1168.53 198.223,1352.75" /><path
             id="path40"
             style="fill:#3f669f;fill-opacity:1;fill-rule:evenodd;stroke:none"
             d="m 5803.05,1711.64 125.6,-125.61 -2258.93,222.8 587.97,349.7 -639.67,286.35 615.07,116.78 -738.09,467.06 349.36,67.82 -364.13,299.05 723.33,-365.91 -186.99,-127.57 905.39,-508.05 -310,-16.1 1191.09,-666.32" /><path
             id="path42"
             style="fill:#dfeefa;fill-opacity:1;fill-rule:evenodd;stroke:none"
             d="M 3180.07,4334.61 2855.33,3773.66 3278.48,3547.32 2343.57,3173.36 3012.78,2848.6 1772.8,2287.66 2815.96,1805.44 1133.13,919.742 247.434,1401.95 3180.07,4334.61" /><path
             id="path44"
             style="fill:#a0bde2;fill-opacity:1;fill-rule:evenodd;stroke:none"
             d="m 515.609,1394.57 624.911,378.9 -152.532,285.38 774.972,568.33 -451.1,-600.45 443.73,-272.97 -167.3,-526.48 -1072.681,167.29" /><path
             id="path46"
             style="fill:#6fbb39;fill-opacity:1;fill-rule:evenodd;stroke:none"
             d="M 6579.57,1997.25 V 0 H 1987.95 c 142.11,1068.35 2116.72,1925.26 4591.62,1997.25" /><path
             id="path48"
             style="fill:#68b231;fill-opacity:1;fill-rule:evenodd;stroke:none"
             d="M 6579.57,1797.25 V 59.0508 H 4034.91 C 4134.59,808.52 5136.16,1453.89 6579.57,1797.25" /><path
             id="path50"
             style="fill:#549d34;fill-opacity:1;fill-rule:evenodd;stroke:none"
             d="M 6579.57,526.621 V 0 H 0 v 1495.13 c 379.543,22.73 771.441,34.77 1172.5,34.77 2343.04,0 4378.26,-406.42 5407.07,-1003.279" /><path
             id="path52"
             style="fill:#5fab32;fill-opacity:1;fill-rule:evenodd;stroke:none"
             d="M 6008.78,0 H 3889.74 c -131.83,593.449 -388.78,1061.75 -746.06,1429.73 579.4,-60.8 1119.64,-147.71 1606.33,-256.12 C 5199.79,837.32 5613.95,436.219 6008.78,0" /><path
             id="path54"
             style="fill:#4e9434;fill-opacity:1;fill-rule:evenodd;stroke:none"
             d="M 6579.57,340.07 V 0 H 0 v 794.98 c 425.289,17.649 859.246,26.829 1300.19,26.829 1947.04,0 3759.84,-177.067 5279.38,-481.739" /><path
             id="path56"
             style="fill:#549d34;fill-opacity:1;fill-rule:evenodd;stroke:none"
             d="M 6008.78,0 H 3889.74 c -59.97,269.961 -145.82,514.008 -255.23,734.512 650.7,-49.621 1275.5,-119.5 1867.07,-207.34 C 5674.82,359.039 5843.51,182.621 6008.78,0" /><path
             id="path58"
             style="fill:#ffffff;fill-opacity:1;fill-rule:evenodd;stroke:none"
             d="m 753.57,4487.14 c 611.83,0 1223.65,0 1835.49,0 -5.19,139.1 -297.93,185.99 -389.55,80.13 -95.83,259.57 -502.79,230.42 -574.41,-5.53 -1.59,301.28 -432.98,282.97 -508.4,16.59 -86.4,92.92 -303.04,-2.84 -363.13,-91.19" /><path
             id="path60"
             style="fill:#ffffff;fill-opacity:1;fill-rule:evenodd;stroke:none"
             d="m 3322.11,5254.76 c 611.82,0 1223.65,0 1835.49,0 -5.22,139.09 -189.69,195.82 -281.3,89.96 78.37,656.74 -383.4,591.01 -608.86,4.31 -1.58,301.27 -432.99,282.97 -508.4,16.58 -86.4,92.92 -376.85,-22.51 -436.93,-110.85" /><path
             id="path62"
             style="fill:#356028;fill-opacity:1;fill-rule:evenodd;stroke:none"
             d="M 2002.63,874.488 2241.49,1507.24 2472.23,958.391 2305.12,1047.07 2707.57,286.5 2417.36,389.109 2768.96,0 h -859.21 v 295.16 l 135.31,122.668 -135.31,-16.758 v 75.051 l 207.78,383.359 -114.9,15.008" /><path
             id="path64"
             style="fill:#447d30;fill-opacity:1;fill-rule:evenodd;stroke:none"
             d="M 1016.18,1664.13 1470.73,2868.29 1909.83,1823.83 1591.8,1992.58 2357.67,545.199 1805.41,740.469 2474.5,0 H 839.418 V 561.68 L 1096.91,795.141 839.418,763.262 v 142.777 l 395.402,729.551 -218.64,28.54" /><path
             id="path66"
             style="fill:#ffffff;fill-opacity:1;fill-rule:evenodd;stroke:none"
             d="m 4242.25,4369.05 c 344.82,0 780.67,0 1125.47,0 -2.91,78.4 -197.93,110.36 -249.57,50.71 -118.25,163.01 -316.83,204.58 -343.13,2.42 -76.36,237.19 -352.43,256.28 -286.52,9.35 -189.96,141.17 -301.37,43.25 -246.25,-62.48" /><path
             id="path68"
             style="fill:#356028;fill-opacity:1;fill-rule:evenodd;stroke:none"
             d="M 210.445,1981.26 751.609,3414.87 1274.38,2171.37 895.758,2372.29 1807.57,649.102 1150.08,881.578 1946.66,0 H 0 V 668.73 L 306.559,946.66 0,908.699 V 1078.71 L 588.848,2321.24 210.445,1981.26" /><path
             id="path70"
             style="fill:#100f0d;fill-opacity:1;fill-rule:nonzero;stroke:none"
             d="m 2091.18,257.57 c 0,7.309 -1.06,13.621 -3.22,18.809 -2.12,5.25 -5.05,9.281 -8.89,12.133 -3.78,2.797 -7.95,4.187 -12.57,4.187 -7.26,0 -13.44,-3.027 -18.5,-9.008 -4.99,-6.109 -7.55,-14.859 -7.55,-26.582 0,-11.039 2.56,-19.57 7.51,-25.64 5.01,-6.129 11.17,-9.227 18.54,-9.227 4.42,0 8.52,1.348 12.28,4.047 3.69,2.68 6.72,6.699 8.98,11.973 2.3,5.379 3.42,11.777 3.42,19.308 z m -51.94,40.328 v -3.367 c 4.97,6.391 10.17,11.137 15.52,14.137 5.38,3.043 11.49,4.512 18.28,4.512 8.13,0 15.64,-2.211 22.51,-6.571 6.85,-4.398 12.3,-10.789 16.29,-19.269 3.94,-8.399 5.97,-18.418 5.97,-29.969 0,-8.473 -1.19,-16.351 -3.48,-23.383 -2.26,-7.179 -5.43,-13.199 -9.43,-17.988 -4.05,-4.891 -8.81,-8.59 -14.26,-11.148 -5.46,-2.622 -11.35,-3.872 -17.6,-3.872 -7.62,0 -13.96,1.532 -19.1,4.7 -5.2,3.179 -10.06,7.8 -14.7,13.949 v -41.488 c 0,-12.172 -4.26,-18.211 -12.74,-18.211 -4.96,0 -8.27,1.511 -9.86,4.64 -1.64,3.168 -2.41,7.77 -2.41,13.77 v 119.359 c 0,5.231 1.06,9.242 3.28,11.801 2.22,2.578 5.24,3.941 8.99,3.941 3.8,0 6.84,-1.363 9.19,-4.05 2.36,-2.692 3.55,-6.551 3.55,-11.493" /><path
             id="path72"
             style="fill:#100f0d;fill-opacity:1;fill-rule:nonzero;stroke:none"
             d="m 2207.93,216.559 v 3.511 c -3.22,-4.179 -6.54,-7.691 -10.05,-10.511 -3.49,-2.868 -7.32,-4.93 -11.41,-6.329 -4.19,-1.39 -8.92,-2.082 -14.19,-2.082 -6.41,0 -12.13,1.403 -17.22,4.161 -5.12,2.742 -9.02,6.57 -11.81,11.429 -3.32,5.891 -4.96,14.313 -4.96,25.262 l 0.01,54.832 c 0,5.527 1.2,9.668 3.6,12.43 2.42,2.668 5.54,4.066 9.49,4.066 4.05,0 7.27,-1.398 9.72,-4.18 2.43,-2.726 3.67,-6.867 3.67,-12.316 v -44.273 c 0,-6.418 0.52,-11.797 1.52,-16.118 1.06,-4.402 2.89,-7.812 5.69,-10.273 2.58,-2.449 6.25,-3.648 10.82,-3.648 4.54,0 8.76,1.41 12.61,4.16 4,2.73 6.89,6.332 8.71,10.769 1.5,3.949 2.22,12.5 2.22,25.789 v 33.594 c 0,5.449 1.25,9.59 3.69,12.316 2.41,2.782 5.65,4.18 9.6,4.18 3.93,0 7.11,-1.398 9.52,-4.066 2.35,-2.762 3.56,-6.903 3.56,-12.43 v -80.094 c 0,-5.277 -1.1,-9.218 -3.47,-11.847 -2.27,-2.621 -5.2,-3.911 -8.85,-3.911 -3.62,0 -6.6,1.399 -8.95,4.051 -2.36,2.778 -3.52,6.559 -3.52,11.528" /><path
             id="path74"
             style="fill:#100f0d;fill-opacity:1;fill-rule:nonzero;stroke:none"
             d="m 2284.81,256.488 c 0,-11 2.34,-19.429 7.15,-25.347 4.88,-5.86 11.17,-8.899 19.02,-8.899 6.67,0 12.4,3.039 17.22,9.078 4.87,6.09 7.27,14.7 7.27,25.95 0,7.421 -1.01,13.679 -3.04,18.91 -2,5.289 -4.88,9.351 -8.51,12.199 -3.76,2.859 -8.04,4.32 -12.94,4.32 -5.11,0 -9.53,-1.461 -13.48,-4.32 -3.99,-2.848 -7.08,-7.008 -9.34,-12.481 -2.25,-5.41 -3.35,-11.847 -3.35,-19.41 z m -1.3,82.223 v -42.262 c 4.93,5.43 10.04,9.531 15.2,12.461 5.19,2.891 11.64,4.27 19.23,4.27 8.82,0 16.52,-2.211 23.16,-6.481 6.63,-4.418 11.78,-10.73 15.44,-18.961 3.67,-8.277 5.5,-18.097 5.5,-29.449 0,-8.379 -1.01,-16.09 -3.04,-23.051 -2.07,-6.988 -5,-13.047 -8.9,-18.218 -3.88,-5.079 -8.61,-9.008 -14.1,-11.899 -5.57,-2.742 -11.68,-4.141 -18.35,-4.141 -4.02,0 -7.88,0.461 -11.49,1.489 -3.61,1.011 -6.7,2.301 -9.2,4.019 -2.49,1.563 -4.66,3.332 -6.45,5.063 -1.77,1.801 -4.07,4.379 -7,7.898 v -2.711 c 0,-5.238 -1.23,-9.129 -3.62,-11.847 -2.4,-2.621 -5.44,-3.911 -9.1,-3.911 -3.8,0 -6.74,1.29 -9,3.911 -2.22,2.789 -3.32,6.66 -3.32,11.847 V 337.5 c 0,5.59 1.06,9.77 3.21,12.66 2.22,2.891 5.2,4.328 9.11,4.328 4.03,0 7.22,-1.398 9.39,-4.16 2.22,-2.707 3.33,-6.59 3.33,-11.617" /><path
             id="path76"
             style="fill:#100f0d;fill-opacity:1;fill-rule:nonzero;stroke:none"
             d="m 2380.71,217.77 v 119.89 c 0,5.578 1.19,9.758 3.51,12.578 2.4,2.813 5.59,4.25 9.57,4.25 4.05,0 7.27,-1.398 9.74,-4.25 2.39,-2.726 3.71,-6.976 3.71,-12.578 V 217.77 c 0,-5.649 -1.32,-9.879 -3.78,-12.649 -2.5,-2.742 -5.71,-4.141 -9.67,-4.141 -3.85,0 -6.97,1.438 -9.43,4.329 -2.46,2.91 -3.65,7 -3.65,12.461" /><path
             id="path78"
             style="fill:#100f0d;fill-opacity:1;fill-rule:nonzero;stroke:none"
             d="m 2461.08,297.59 v -79.82 c 0,-5.579 -1.3,-9.758 -3.76,-12.61 -2.55,-2.742 -5.77,-4.18 -9.63,-4.18 -3.9,0 -7.02,1.438 -9.48,4.258 -2.4,2.981 -3.65,7.071 -3.65,12.532 v 79.062 c 0,5.449 1.25,9.59 3.65,12.316 2.46,2.782 5.58,4.18 9.48,4.18 3.86,0 7.08,-1.398 9.63,-4.18 2.46,-2.726 3.76,-6.589 3.76,-11.558 z m -13.16,28.66 c -3.64,0 -6.77,1.141 -9.46,3.539 -2.55,2.371 -3.9,5.793 -3.9,10.07 0,3.879 1.35,7.121 4.05,9.68 2.63,2.539 5.76,3.75 9.31,3.75 3.45,0 6.52,-1.117 9.16,-3.418 2.66,-2.25 4,-5.691 4,-10.012 0,-4.277 -1.34,-7.609 -3.9,-9.98 -2.6,-2.41 -5.68,-3.629 -9.26,-3.629" /><path
             id="path80"
             style="fill:#100f0d;fill-opacity:1;fill-rule:nonzero;stroke:none"
             d="m 2583.32,235.129 c 0,-3.391 -0.97,-7.07 -2.9,-10.969 -2.01,-3.941 -5.04,-7.66 -9.09,-11.211 -4.04,-3.531 -9.14,-6.39 -15.25,-8.519 -6.16,-2.2 -13.08,-3.282 -20.74,-3.282 -16.41,0 -29.16,4.993 -38.37,14.93 -9.18,9.961 -13.76,23.293 -13.76,40.043 0,11.297 2.08,21.418 6.27,30.059 4.18,8.672 10.34,15.461 18.23,20.242 7.94,4.738 17.47,7.109 28.53,7.109 6.89,0 13.2,-1.051 18.92,-3.062 5.71,-2.149 10.59,-4.86 14.53,-8.149 4.01,-3.332 7.03,-6.832 9.14,-10.57 2.13,-3.77 3.15,-7.23 3.15,-10.512 0,-3.289 -1.22,-6.047 -3.53,-8.386 -2.4,-2.293 -5.19,-3.442 -8.61,-3.442 -2.21,0 -4.04,0.66 -5.48,1.82 -1.44,1.161 -3.09,2.981 -4.92,5.668 -3.22,5.102 -6.59,9 -10.16,11.614 -3.49,2.527 -7.98,3.886 -13.36,3.886 -7.91,0 -14.21,-3.277 -18.97,-9.609 -4.81,-6.449 -7.18,-15.117 -7.18,-26.25 0,-5.141 0.65,-10.008 1.85,-14.34 1.24,-4.379 3.03,-8.027 5.33,-11.148 2.36,-3.082 5.11,-5.403 8.48,-6.93 3.25,-1.641 6.92,-2.449 10.81,-2.449 5.35,0 9.87,1.289 13.68,3.828 3.74,2.621 7.12,6.539 10.01,11.762 1.64,3.168 3.37,5.566 5.25,7.347 1.88,1.801 4.23,2.563 6.92,2.563 3.23,0 5.92,-1.223 8.04,-3.762 2.12,-2.648 3.18,-5.32 3.18,-8.281" /><path
             id="path82"
             style="fill:#100f0d;fill-opacity:1;fill-rule:nonzero;stroke:none"
             d="m 2626.96,257.27 c 0,-7.45 1.17,-13.821 3.38,-19.122 2.21,-5.277 5.24,-9.179 9.09,-11.859 3.94,-2.699 8.16,-4.047 12.7,-4.047 4.73,0 8.95,1.289 12.8,3.797 3.85,2.539 6.9,6.441 9.24,11.691 2.28,5.192 3.42,11.739 3.42,19.54 0,7.421 -1.14,13.73 -3.42,19.07 -2.34,5.289 -5.42,9.32 -9.33,12.172 -3.91,2.797 -8.19,4.187 -12.85,4.187 -4.81,0 -9.15,-1.461 -13,-4.32 -3.8,-2.848 -6.77,-7.008 -8.85,-12.367 -2.11,-5.41 -3.18,-11.571 -3.18,-18.742 z m 52.08,-40.532 v 2.711 c -3.57,-4.277 -7.07,-7.699 -10.54,-10.347 -3.41,-2.692 -7.17,-4.711 -11.27,-6.114 -3.98,-1.328 -8.42,-2.008 -13.17,-2.008 -6.37,0 -12.28,1.399 -17.62,4.141 -5.4,2.891 -10.12,6.82 -14,12.02 -3.95,5.179 -6.98,11.32 -9.02,18.32 -2.06,7.027 -3.05,14.578 -3.05,22.828 0,17.281 4.03,30.813 12.1,40.422 8.14,9.68 18.78,14.469 31.91,14.469 7.65,0 14.12,-1.379 19.36,-4.192 5.21,-2.617 10.34,-6.867 15.3,-12.539 v 40.821 c 0,5.66 1.1,9.96 3.26,12.851 2.18,2.93 5.21,4.367 9.24,4.367 4.01,0 7.08,-1.359 9.3,-4 2.16,-2.66 3.27,-6.59 3.27,-11.777 V 216.738 c 0,-5.277 -1.19,-9.218 -3.52,-11.847 -2.36,-2.621 -5.33,-3.911 -9.05,-3.911 -3.55,0 -6.57,1.29 -8.98,4.051 -2.31,2.707 -3.52,6.559 -3.52,11.707" /><path
             id="path84"
             style="fill:#100f0d;fill-opacity:1;fill-rule:nonzero;stroke:none"
             d="m 2803.29,257.09 c 0,11.211 -2.4,20.031 -7.16,26.32 -4.76,6.262 -11.17,9.449 -19.15,9.449 -5.2,0 -9.71,-1.461 -13.72,-4.25 -3.89,-2.839 -6.97,-6.98 -9.09,-12.429 -2.18,-5.43 -3.22,-11.782 -3.22,-19.09 0,-7.231 1.04,-13.539 3.16,-18.922 2.13,-5.41 5.1,-9.539 9.06,-12.406 3.89,-2.852 8.51,-4.301 13.81,-4.301 7.98,0 14.39,3.141 19.15,9.449 4.76,6.301 7.16,15.039 7.16,26.18 z m 26.57,0 c 0,-8.192 -1.24,-15.809 -3.71,-22.828 -2.45,-6.883 -6,-12.832 -10.62,-17.84 -4.68,-5.063 -10.26,-8.742 -16.7,-11.531 -6.52,-2.621 -13.82,-3.911 -21.85,-3.911 -8.04,0 -15.2,1.29 -21.67,3.981 -6.39,2.719 -11.94,6.59 -16.65,11.598 -4.67,5.043 -8.24,10.972 -10.67,17.8 -2.41,6.879 -3.61,14.43 -3.61,22.75 0,8.391 1.25,16.039 3.65,22.973 2.5,6.977 6.01,12.918 10.58,17.859 4.64,4.899 10.17,8.707 16.7,11.368 6.55,2.691 13.76,4.019 21.67,4.019 8.03,0 15.29,-1.328 21.85,-4.066 6.48,-2.653 12.09,-6.551 16.74,-11.563 4.67,-5 8.23,-10.918 10.63,-17.847 2.46,-6.84 3.66,-14.493 3.66,-22.762" /><path
             id="path86"
             style="fill:#100f0d;fill-opacity:1;fill-rule:nonzero;stroke:none"
             d="m 2941.77,279.941 c -1.98,-4.711 -2.94,-12.941 -2.94,-24.839 V 218.41 c 0,-5.808 -1.26,-10.191 -3.81,-13.101 -2.51,-2.891 -5.87,-4.329 -10,-4.329 -4,0 -7.23,1.438 -9.69,4.329 -2.5,2.91 -3.75,7.293 -3.75,13.101 v 44.059 c 0,6.941 -0.25,12.312 -0.71,16.23 -0.45,3.781 -1.7,6.961 -3.67,9.449 -1.98,2.473 -5.2,3.723 -9.49,3.723 -8.64,0 -14.33,-3.082 -17.12,-9.391 -2.75,-6.14 -4.09,-15.101 -4.09,-26.71 v -37.36 c 0,-5.808 -1.26,-10.191 -3.75,-13.012 -2.49,-2.98 -5.78,-4.418 -9.83,-4.418 -4.05,0 -7.35,1.438 -9.86,4.418 -2.61,2.821 -3.81,7.204 -3.81,12.942 v 79.16 c 0,5.211 1.11,9.148 3.37,11.852 2.36,2.687 5.34,4.089 9.11,4.089 3.61,0 6.63,-1.293 9.1,-3.812 2.39,-2.539 3.6,-6.02 3.6,-10.481 v -2.679 c 4.58,5.812 9.52,9.98 14.72,12.679 5.24,2.704 11.11,4.032 17.47,4.032 6.69,0 12.37,-1.379 17.19,-4.192 4.81,-2.656 8.7,-6.91 11.78,-12.519 4.49,5.652 9.3,9.953 14.4,12.64 5.13,2.743 10.78,4.071 16.95,4.071 7.3,0 13.52,-1.379 18.74,-4.418 5.27,-2.981 9.15,-7.211 11.76,-12.793 2.27,-5.008 3.41,-12.867 3.41,-23.578 V 218.41 c 0,-5.808 -1.28,-10.191 -3.74,-13.101 -2.61,-2.891 -5.89,-4.329 -10.06,-4.329 -4,0 -7.28,1.438 -9.83,4.418 -2.58,2.821 -3.89,7.204 -3.89,13.012 v 46.469 c 0,5.961 -0.2,10.73 -0.67,14.301 -0.53,3.609 -1.82,6.59 -3.95,9.039 -2.11,2.402 -5.38,3.652 -9.72,3.652 -3.48,0 -6.8,-1.09 -9.87,-3.211 -3.23,-2.23 -5.65,-5.058 -7.35,-8.719 v 0" /><path
             id="path88"
             style="fill:#100f0d;fill-opacity:1;fill-rule:nonzero;stroke:none"
             d="m 3091.82,256.539 c -3.95,-1.488 -9.56,-3.059 -16.99,-4.719 -7.41,-1.672 -12.56,-2.879 -15.4,-3.64 -2.83,-0.809 -5.53,-2.321 -8.13,-4.539 -2.61,-2.289 -3.91,-5.473 -3.91,-9.52 0,-4.223 1.56,-7.812 4.59,-10.723 3.02,-2.937 7.02,-4.429 11.92,-4.429 5.25,0 10.11,1.25 14.54,3.66 4.43,2.34 7.71,5.492 9.72,9.281 2.41,4.141 3.66,11.012 3.66,20.692 z m 1.69,-40.039 c -6.41,-5.191 -12.61,-9.09 -18.59,-11.648 -5.98,-2.622 -12.7,-3.872 -20.11,-3.872 -6.84,0 -12.75,1.399 -17.91,4.141 -5.19,2.77 -9.14,6.629 -11.94,11.438 -2.74,4.781 -4.18,9.961 -4.18,15.589 0,7.563 2.36,13.954 6.94,19.352 4.57,5.309 10.86,8.852 18.86,10.742 1.72,0.387 5.92,1.25 12.56,2.637 6.69,1.492 12.39,2.793 17.18,3.953 4.71,1.148 9.92,2.578 15.5,4.27 -0.39,7.328 -1.77,12.668 -4.24,16.128 -2.49,3.372 -7.69,5.059 -15.49,5.059 -6.75,0 -11.8,-0.969 -15.25,-2.937 -3.39,-1.954 -6.26,-4.922 -8.72,-8.872 -2.41,-3.902 -4.09,-6.441 -5.1,-7.699 -1.06,-1.289 -3.17,-1.82 -6.46,-1.82 -3.02,0 -5.57,0.969 -7.69,2.937 -2.2,1.961 -3.32,4.532 -3.32,7.704 0,4.867 1.69,9.566 4.99,14.097 3.29,4.621 8.44,8.379 15.42,11.41 6.96,2.969 15.69,4.422 26.13,4.422 11.66,0 20.79,-1.453 27.46,-4.269 6.68,-2.84 11.32,-7.383 14.07,-13.621 2.79,-6.243 4.18,-14.45 4.18,-24.692 0,-6.508 0,-12.039 -0.05,-16.558 -0.07,-4.532 -0.07,-9.563 -0.18,-15.121 0,-5.149 0.87,-10.641 2.5,-16.2 1.6,-5.652 2.44,-9.281 2.44,-10.879 0,-2.851 -1.27,-5.429 -3.85,-7.761 -2.49,-2.309 -5.38,-3.45 -8.65,-3.45 -2.69,0 -5.34,1.29 -8.08,3.911 -2.6,2.718 -5.45,6.57 -8.42,11.609" /><path
             id="path90"
             style="fill:#100f0d;fill-opacity:1;fill-rule:nonzero;stroke:none"
             d="m 3171.23,297.59 v -79.82 c 0,-5.579 -1.3,-9.758 -3.8,-12.61 -2.51,-2.742 -5.75,-4.18 -9.58,-4.18 -3.89,0 -7.07,1.438 -9.49,4.258 -2.46,2.981 -3.64,7.071 -3.64,12.532 v 79.062 c 0,5.449 1.19,9.59 3.64,12.316 2.42,2.782 5.6,4.18 9.49,4.18 3.83,0 7.07,-1.398 9.58,-4.18 2.5,-2.726 3.8,-6.589 3.8,-11.558 z m -13.15,28.66 c -3.65,0 -6.78,1.141 -9.42,3.539 -2.61,2.371 -3.94,5.793 -3.94,10.07 0,3.879 1.33,7.121 4.09,9.68 2.64,2.539 5.77,3.75 9.27,3.75 3.43,0 6.51,-1.117 9.14,-3.418 2.65,-2.25 4.01,-5.691 4.01,-10.012 0,-4.277 -1.3,-7.609 -3.91,-9.98 -2.59,-2.41 -5.67,-3.629 -9.24,-3.629" /><path
             id="path92"
             style="fill:#100f0d;fill-opacity:1;fill-rule:nonzero;stroke:none"
             d="m 3222.68,298.031 v -3.301 c 4.61,6.379 9.71,11.09 15.24,14.09 5.56,2.981 11.84,4.508 19.12,4.508 6.91,0 13.16,-1.527 18.73,-4.797 5.43,-3.121 9.61,-7.609 12.3,-13.39 1.75,-3.391 2.85,-7.071 3.38,-10.95 0.46,-3.921 0.8,-8.933 0.8,-14.972 V 217.77 c 0,-5.579 -1.29,-9.758 -3.65,-12.61 -2.44,-2.742 -5.63,-4.18 -9.48,-4.18 -3.9,0 -7.1,1.438 -9.53,4.329 -2.46,2.91 -3.75,7 -3.75,12.461 v 46 c 0,9.191 -1.17,16.171 -3.56,21 -2.49,4.789 -7.38,7.191 -14.65,7.191 -4.66,0 -8.93,-1.441 -12.83,-4.422 -3.89,-2.891 -6.74,-6.93 -8.54,-12.078 -1.28,-4.09 -1.94,-11.781 -1.94,-23.152 V 217.77 c 0,-5.649 -1.26,-9.879 -3.77,-12.649 -2.5,-2.742 -5.74,-4.141 -9.62,-4.141 -3.8,0 -6.98,1.438 -9.43,4.258 -2.51,2.981 -3.69,7.071 -3.69,12.532 l -0.03,79.82 c 0,5.34 1.12,9.199 3.33,11.84 2.17,2.609 5.26,3.898 9.06,3.898 2.31,0 4.43,-0.617 6.25,-1.726 1.92,-1.09 3.37,-2.891 4.53,-5.153 1.1,-2.289 1.73,-5.09 1.73,-8.418" /><path
             id="path94"
             style="fill:#100f0d;fill-opacity:1;fill-rule:nonzero;stroke:none"
             d="m 3334.75,296.102 21.42,-62.762 23.09,65.5 c 1.83,5.32 3.63,8.949 5.35,11.23 1.78,2.172 4.43,3.258 7.93,3.258 3.38,0 6.27,-1.18 8.69,-3.547 2.31,-2.363 3.52,-5.051 3.52,-8.23 0,-1.199 -0.26,-2.61 -0.69,-4.199 -0.39,-1.641 -0.86,-3.172 -1.44,-4.622 -0.53,-1.378 -1.12,-3.019 -1.9,-4.789 l -25.39,-65.839 c -0.72,-1.883 -1.7,-4.332 -2.79,-7.223 -1.15,-2.918 -2.38,-5.32 -3.75,-7.469 -1.45,-2.012 -3.15,-3.609 -5.16,-4.738 -2.07,-1.172 -4.57,-1.692 -7.46,-1.692 -3.75,0 -6.74,0.86 -9,2.641 -2.25,1.777 -3.91,3.699 -4.94,5.848 -1.08,2.121 -2.84,6.312 -5.39,12.633 l -25.24,65.089 c -0.62,1.598 -1.17,3.239 -1.87,4.879 -0.57,1.578 -1.02,3.219 -1.49,4.969 -0.39,1.672 -0.62,3.121 -0.62,4.32 0,1.922 0.52,3.789 1.64,5.621 1.09,1.891 2.69,3.418 4.55,4.579 1.99,1.152 4.06,1.769 6.35,1.769 4.39,0 7.38,-1.289 9.04,-3.976 1.66,-2.614 3.53,-7.032 5.55,-13.25" /><path
             id="path96"
             style="fill:#100f0d;fill-opacity:1;fill-rule:nonzero;stroke:none"
             d="m 3443.14,266.078 h 48.03 c -0.6,9.422 -3.08,16.524 -7.38,21.184 -4.22,4.656 -9.81,7.027 -16.68,7.027 -6.6,0 -12.03,-2.371 -16.27,-7.141 -4.24,-4.707 -6.78,-11.777 -7.7,-21.07 z m 51.82,-15.687 h -51.82 c 0,-6.352 1.25,-11.852 3.54,-16.711 2.48,-4.711 5.59,-8.34 9.49,-10.77 3.89,-2.449 8.22,-3.648 12.95,-3.648 3.18,0 6.08,0.367 8.69,1.136 2.64,0.832 5.18,2.012 7.7,3.672 2.38,1.621 4.59,3.348 6.72,5.34 2.03,1.891 4.8,4.391 8.02,7.649 1.41,1.242 3.34,1.839 5.82,1.839 2.78,0 4.97,-0.73 6.63,-2.328 1.69,-1.531 2.53,-3.742 2.53,-6.519 0,-2.52 -0.95,-5.449 -2.85,-8.821 -1.85,-3.332 -4.67,-6.55 -8.47,-9.64 -3.77,-3.078 -8.56,-5.57 -14.26,-7.649 -5.7,-2.031 -12.25,-2.961 -19.73,-2.961 -17.07,0 -30.31,5.04 -39.67,15.098 -9.45,10.211 -14.16,23.91 -14.16,41.192 0,8.269 1.16,15.832 3.46,22.789 2.38,7 5.72,13.031 10.22,17.972 4.41,5.02 9.92,8.91 16.46,11.508 6.58,2.703 13.79,3.992 21.78,3.992 10.27,0 19.16,-2.25 26.58,-6.832 7.4,-4.578 12.99,-10.379 16.64,-17.597 3.71,-7.27 5.53,-14.614 5.53,-22.141 0,-6.961 -1.86,-11.473 -5.67,-13.481 -3.88,-2.082 -9.2,-3.089 -16.13,-3.089" /><path
             id="path98"
             style="fill:#100f0d;fill-opacity:1;fill-rule:nonzero;stroke:none"
             d="m 3634.16,235.129 c 0,-3.391 -1.02,-7.07 -3.01,-10.969 -2.01,-3.941 -4.94,-7.66 -9.04,-11.211 -3.98,-3.531 -9.12,-6.39 -15.29,-8.519 -6.12,-2.2 -13.11,-3.282 -20.75,-3.282 -16.4,0 -29.16,4.993 -38.3,14.93 -9.18,9.961 -13.82,23.293 -13.82,40.043 0,11.297 2.09,21.418 6.3,30.09 4.24,8.641 10.26,15.43 18.25,20.211 7.95,4.738 17.46,7.109 28.51,7.109 6.92,0 13.17,-1.051 18.93,-3.062 5.68,-2.149 10.54,-4.86 14.53,-8.149 4,-3.332 7.05,-6.832 9.16,-10.57 2.07,-3.77 3.12,-7.23 3.12,-10.512 0,-3.289 -1.15,-6.047 -3.61,-8.386 -2.32,-2.293 -5.14,-3.442 -8.51,-3.442 -2.21,0 -4.05,0.66 -5.43,1.82 -1.51,1.161 -3.13,2.981 -4.97,5.668 -3.22,5.102 -6.6,9 -10.09,11.614 -3.58,2.527 -8.07,3.886 -13.5,3.886 -7.79,0 -14.14,-3.277 -18.91,-9.609 -4.8,-6.449 -7.18,-15.117 -7.18,-26.25 0,-5.141 0.64,-10.008 1.83,-14.34 1.25,-4.379 3.05,-8.027 5.35,-11.148 2.37,-3.082 5.14,-5.403 8.48,-6.93 3.2,-1.641 6.9,-2.449 10.8,-2.449 5.31,0 9.92,1.289 13.69,3.828 3.75,2.621 7.11,6.539 10.06,11.762 1.58,3.168 3.36,5.566 5.26,7.347 1.81,1.801 4.12,2.563 6.87,2.563 3.18,0 5.9,-1.223 7.99,-3.762 2.17,-2.648 3.28,-5.32 3.28,-8.281" /><path
             id="path100"
             style="fill:#100f0d;fill-opacity:1;fill-rule:nonzero;stroke:none"
             d="m 3658.75,310.969 h 2.93 v 16.679 c 0,4.364 0.08,7.934 0.33,10.461 0.24,2.52 0.82,4.692 1.88,6.532 1.01,1.859 2.56,3.398 4.49,4.597 1.89,1.16 4.06,1.731 6.48,1.731 3.32,0 6.39,-1.34 9.1,-3.899 1.78,-1.82 2.93,-3.949 3.4,-6.441 0.55,-2.52 0.75,-6.168 0.75,-10.84 v -18.82 h 9.76 c 3.73,0 6.58,-0.899 8.58,-2.789 2.01,-1.809 2.98,-4.18 2.98,-7.071 0,-3.757 -1.42,-6.379 -4.29,-7.828 -2.74,-1.441 -6.8,-2.242 -12.05,-2.242 h -4.98 v -50.891 c 0,-4.339 0.13,-7.668 0.46,-10.007 0.3,-2.371 1.14,-4.25 2.37,-5.629 1.25,-1.512 3.28,-2.27 6.19,-2.27 1.5,0 3.57,0.278 6.27,0.906 2.62,0.532 4.67,0.813 6.21,0.813 2.13,0 4.08,-0.891 5.76,-2.621 1.7,-1.801 2.58,-4.012 2.58,-6.66 0,-4.422 -2.29,-7.848 -6.95,-10.2 -4.77,-2.359 -11.41,-3.5 -20.12,-3.5 -8.28,0 -14.55,1.438 -18.85,4.329 -4.24,2.91 -7.07,6.882 -8.38,12.062 -1.35,5.149 -1.97,12 -1.97,20.539 v 53.129 h -3.57 c -3.75,0 -6.66,0.922 -8.66,2.852 -2.03,1.91 -3.02,4.289 -3.02,7.218 0,2.891 1.05,5.262 3.12,7.071 2.13,1.89 5.22,2.789 9.2,2.789" /><path
             id="path102"
             style="fill:#100f0d;fill-opacity:1;fill-rule:nonzero;stroke:none"
             d="m 3800.2,257.09 c 0,11.211 -2.45,20.031 -7.15,26.32 -4.81,6.262 -11.16,9.449 -19.2,9.449 -5.14,0 -9.71,-1.461 -13.65,-4.25 -3.95,-2.839 -7,-6.98 -9.09,-12.429 -2.18,-5.43 -3.24,-11.782 -3.24,-19.09 0,-7.231 1.06,-13.539 3.17,-18.922 2.12,-5.41 5.11,-9.539 9,-12.406 3.91,-2.852 8.48,-4.301 13.81,-4.301 8.04,0 14.39,3.141 19.2,9.449 4.7,6.301 7.15,15.039 7.15,26.18 z m 26.6,0 c 0,-8.192 -1.25,-15.809 -3.75,-22.828 -2.41,-6.883 -6.02,-12.832 -10.67,-17.84 -4.63,-5.063 -10.21,-8.742 -16.68,-11.531 -6.42,-2.621 -13.67,-3.911 -21.85,-3.911 -8.03,0 -15.26,1.29 -21.64,3.981 -6.37,2.719 -11.94,6.59 -16.62,11.598 -4.65,5.043 -8.23,10.972 -10.63,17.8 -2.46,6.879 -3.65,14.43 -3.65,22.75 0,8.391 1.19,16.039 3.65,22.973 2.5,6.977 5.98,12.918 10.59,17.859 4.61,4.899 10.15,8.707 16.66,11.368 6.62,2.691 13.81,4.019 21.64,4.019 8.04,0 15.31,-1.328 21.85,-4.066 6.55,-2.653 12.13,-6.551 16.8,-11.563 4.61,-5 8.22,-10.918 10.64,-17.847 2.41,-6.84 3.66,-14.493 3.66,-22.762" /><path
             id="path104"
             style="fill:#100f0d;fill-opacity:1;fill-rule:nonzero;stroke:none"
             d="M 3873.95,240.762 V 217.77 c 0,-5.649 -1.25,-9.879 -3.74,-12.649 -2.57,-2.742 -5.78,-4.141 -9.64,-4.141 -3.77,0 -6.98,1.438 -9.42,4.18 -2.44,2.852 -3.67,7.031 -3.67,12.61 v 76.96 c 0,12.411 4.28,18.598 12.91,18.598 4.32,0 7.56,-1.476 9.53,-4.34 1.94,-2.91 2.93,-7.187 3.19,-12.886 3.16,5.699 6.42,9.976 9.76,12.886 3.3,2.864 7.74,4.34 13.28,4.34 5.63,0 10.98,-1.476 16.27,-4.34 5.22,-2.91 7.87,-6.777 7.87,-11.578 0,-3.371 -1.19,-6.172 -3.41,-8.308 -2.17,-2.204 -4.61,-3.332 -7.19,-3.332 -1,0 -3.36,0.66 -7.11,1.921 -3.69,1.25 -6.95,1.868 -9.85,1.868 -3.84,0 -7.05,-1.047 -9.43,-3.219 -2.48,-2.149 -4.37,-5.238 -5.74,-9.442 -1.39,-4.218 -2.36,-9.199 -2.81,-15.019 -0.51,-5.711 -0.8,-12.738 -0.8,-21.117" /><path
             id="path106"
             style="fill:#100f0d;fill-opacity:1;fill-rule:nonzero;stroke:none"
             d="m 4015.06,237.059 c 0,-7.649 -1.72,-14.149 -5.35,-19.641 -3.6,-5.457 -8.85,-9.527 -15.76,-12.297 -7.02,-2.742 -15.41,-4.141 -25.41,-4.141 -9.5,0 -17.66,1.489 -24.52,4.508 -6.79,3.024 -11.79,6.821 -15.02,11.364 -3.2,4.578 -4.9,9.109 -4.9,13.707 0,3.031 1.08,5.621 3.19,7.742 2.07,2.219 4.68,3.289 7.85,3.289 2.79,0 4.88,-0.719 6.4,-2.129 1.53,-1.441 2.89,-3.449 4.28,-5.949 2.72,-4.973 5.96,-8.672 9.77,-11.102 3.75,-2.449 8.94,-3.629 15.48,-3.629 5.3,0 9.63,1.239 13.05,3.699 3.36,2.45 5.16,5.29 5.16,8.43 0,4.899 -1.84,8.461 -5.3,10.629 -3.57,2.313 -9.35,4.41 -17.5,6.402 -9.08,2.399 -16.54,4.899 -22.26,7.457 -5.72,2.661 -10.35,6.063 -13.77,10.293 -3.4,4.25 -5.14,9.5 -5.14,15.68 0,5.598 1.6,10.84 4.77,15.699 3.18,4.961 7.89,8.91 14.04,11.84 6.17,2.942 13.61,4.418 22.36,4.418 6.92,0 13.07,-0.758 18.56,-2.207 5.43,-1.492 10.08,-3.5 13.65,-5.973 3.67,-2.539 6.47,-5.277 8.32,-8.316 1.97,-3.07 2.91,-6.031 2.91,-8.891 0,-3.171 -1.01,-5.742 -3.08,-7.859 -2.04,-1.934 -4.96,-2.961 -8.68,-2.961 -2.73,0 -5,0.738 -6.97,2.43 -1.89,1.597 -4.1,4.051 -6.54,7.23 -1.97,2.688 -4.34,4.828 -7.07,6.5 -2.78,1.571 -6.41,2.43 -11.1,2.43 -4.74,0 -8.78,-1.051 -11.91,-3.199 -3.18,-2.141 -4.77,-4.774 -4.77,-7.953 0,-2.93 1.18,-5.289 3.44,-7.161 2.37,-1.828 5.51,-3.367 9.47,-4.64 4.01,-1.199 9.42,-2.688 16.31,-4.457 8.23,-2.063 14.96,-4.531 20.16,-7.473 5.21,-2.887 9.16,-6.297 11.82,-10.277 2.77,-3.973 4.06,-8.43 4.06,-13.492" /><path
             id="path108"
             style="fill:#100f0d;fill-opacity:1;fill-rule:nonzero;stroke:none"
             d="m 4045.18,200.98 c -4.03,0 -7.5,1.29 -10.38,3.981 -2.92,2.719 -4.37,6.5 -4.37,11.371 0,4.09 1.33,7.629 4.12,10.559 2.75,3.007 6.23,4.429 10.29,4.429 4.07,0 7.56,-1.422 10.36,-4.359 2.94,-2.891 4.39,-6.5 4.39,-10.629 0,-4.832 -1.45,-8.594 -4.39,-11.301 -2.8,-2.761 -6.18,-4.051 -10.02,-4.051" /><path
             id="path110"
             style="fill:#100f0d;fill-opacity:1;fill-rule:nonzero;stroke:none"
             d="m 4162.32,257.09 c 0,11.211 -2.4,20.031 -7.14,26.32 -4.79,6.262 -11.16,9.449 -19.16,9.449 -5.16,0 -9.69,-1.461 -13.62,-4.25 -4.02,-2.839 -7.03,-6.98 -9.16,-12.429 -2.13,-5.43 -3.16,-11.782 -3.16,-19.09 0,-7.231 0.99,-13.539 3.1,-18.922 2.11,-5.41 5.12,-9.539 9.07,-12.406 3.88,-2.852 8.51,-4.301 13.77,-4.301 8,0 14.37,3.141 19.16,9.449 4.74,6.301 7.14,15.039 7.14,26.18 z m 26.63,0 c 0,-8.192 -1.2,-15.809 -3.77,-22.828 -2.45,-6.883 -5.94,-12.832 -10.61,-17.84 -4.69,-5.063 -10.16,-8.742 -16.72,-11.531 -6.44,-2.621 -13.71,-3.911 -21.83,-3.911 -7.99,0 -15.22,1.29 -21.63,3.981 -6.4,2.719 -11.91,6.59 -16.6,11.598 -4.76,5.043 -8.28,10.972 -10.74,17.8 -2.38,6.879 -3.61,14.43 -3.61,22.75 0,8.391 1.23,16.039 3.67,22.973 2.56,6.977 5.98,12.918 10.59,17.859 4.57,4.899 10.15,8.707 16.69,11.368 6.53,2.691 13.72,4.019 21.63,4.019 8,0 15.27,-1.328 21.83,-4.066 6.56,-2.653 12.13,-6.551 16.8,-11.563 4.67,-5 8.16,-10.918 10.68,-17.847 2.42,-6.84 3.62,-14.493 3.62,-22.762" /><path
             id="path112"
             style="fill:#100f0d;fill-opacity:1;fill-rule:nonzero;stroke:none"
             d="M 4236.11,240.762 V 217.77 c 0,-5.649 -1.25,-9.879 -3.77,-12.649 -2.5,-2.742 -5.72,-4.141 -9.57,-4.141 -3.88,0 -6.99,1.438 -9.47,4.18 -2.48,2.852 -3.63,7.031 -3.63,12.61 v 76.96 c 0,12.411 4.29,18.598 12.87,18.598 4.41,0 7.58,-1.476 9.47,-4.34 1.94,-2.91 3.09,-7.187 3.28,-12.886 3.13,5.699 6.35,9.976 9.67,12.886 3.36,2.864 7.85,4.34 13.32,4.34 5.7,0 11.08,-1.476 16.27,-4.34 5.22,-2.91 7.91,-6.777 7.91,-11.578 0,-3.371 -1.17,-6.172 -3.38,-8.308 -2.24,-2.204 -4.61,-3.332 -7.26,-3.332 -0.94,0 -3.28,0.66 -7,1.921 -3.73,1.25 -6.99,1.868 -9.9,1.868 -3.85,0 -7.01,-1.047 -9.53,-3.219 -2.4,-2.149 -4.34,-5.238 -5.66,-9.442 -1.37,-4.218 -2.33,-9.199 -2.85,-15.019 -0.49,-5.711 -0.77,-12.738 -0.77,-21.117" /><path
             id="path114"
             style="fill:#100f0d;fill-opacity:1;fill-rule:nonzero;stroke:none"
             d="m 4312.62,258.059 c 0,-11.207 2.32,-19.707 7.03,-25.469 4.67,-5.699 10.78,-8.629 18.14,-8.629 4.4,0 8.62,1.32 12.5,3.738 3.91,2.52 7.13,6.192 9.57,11.153 2.48,5 3.69,11.007 3.69,18.078 0,11.281 -2.44,20.039 -7.14,26.34 -4.75,6.289 -11.02,9.429 -18.73,9.429 -7.58,0 -13.66,-3.027 -18.19,-9.008 -4.61,-6.062 -6.87,-14.582 -6.87,-25.632 z m 76.76,35.031 v -80.34 c 0,-9.191 -0.98,-17.141 -2.82,-23.66 -1.89,-6.699 -4.94,-12.129 -9,-16.481 -4.16,-4.281 -9.65,-7.488 -16.29,-9.621 -6.68,-2.008 -15,-3.058 -24.96,-3.058 -9.14,0 -17.31,1.289 -24.45,3.922 -7.23,2.75 -12.76,6.128 -16.61,10.418 -3.88,4.16 -5.86,8.511 -5.86,12.98 0,3.43 1.1,6.148 3.31,8.281 2.2,2.117 4.86,3.239 7.94,3.239 3.91,0 7.27,-1.852 10.22,-5.411 1.44,-1.89 2.93,-3.699 4.41,-5.519 1.49,-1.879 3.17,-3.481 5.06,-4.77 1.82,-1.359 4.08,-2.3 6.68,-2.98 2.52,-0.641 5.53,-0.961 8.91,-0.961 6.83,0 12.21,1.051 15.97,3.019 3.75,1.973 6.41,4.77 7.95,8.282 1.49,3.601 2.46,7.41 2.62,11.48 0.31,4.141 0.45,10.719 0.65,19.762 -4.09,-5.891 -8.85,-10.453 -14.15,-13.543 -5.29,-3.098 -11.69,-4.609 -19,-4.609 -8.96,0 -16.7,2.32 -23.3,7.07 -6.64,4.719 -11.76,11.308 -15.29,19.898 -3.54,8.41 -5.35,18.262 -5.35,29.422 0,8.34 1.03,15.828 3.24,22.531 2.13,6.661 5.21,12.289 9.31,16.911 3.93,4.546 8.62,8 13.85,10.367 5.26,2.32 10.94,3.461 17.29,3.461 7.46,0 14,-1.469 19.49,-4.512 5.53,-3 10.59,-7.746 15.31,-14.137 v 3.758 c 0,4.801 1.21,8.449 3.4,11.211 2.27,2.578 5.2,3.941 8.73,3.941 5.14,0 8.56,-1.73 10.24,-5.261 1.66,-3.45 2.5,-8.508 2.5,-15.09" /><path
             id="path116"
             style="fill:#100f0d;fill-opacity:1;fill-rule:nonzero;stroke:none"
             d="m 3241.15,562.34 h 39.32 c -2.79,-21.238 -11.44,-37.738 -25.94,-49.61 -13.38,-11.699 -29.55,-17.421 -48.46,-17.421 -25.65,0 -46.09,8.98 -61.41,26.992 -14.48,17.117 -21.73,39.23 -21.73,66.211 0,27.617 7.19,49.758 21.54,66.527 14.29,16.641 34.61,25.031 60.74,25.031 19.47,0 35.94,-5.269 49.32,-15.711 14.21,-11.308 22.86,-27.179 25.94,-47.5 h -39.32 c -3.36,17.731 -14.25,26.582 -32.66,26.582 -30.38,0 -45.58,-18 -45.58,-54 0,-16.89 3.87,-30.66 11.73,-41.39 7.81,-10.77 18.83,-16.192 33.03,-16.192 21.17,0 32.33,10.172 33.48,30.481 z m -154.71,24.789 c 0,-35.188 11.15,-64.981 33.44,-89.168 22.26,-24.313 49.57,-36.441 81.97,-36.441 32.23,0 59.56,12.128 81.86,36.441 22.27,24.187 33.4,53.98 33.4,89.168 0,35.141 -11.13,64.859 -33.4,89.121 -22.3,24.332 -49.63,36.441 -81.86,36.441 -32.4,0 -59.71,-12.109 -81.97,-36.441 -22.29,-24.262 -33.44,-53.98 -33.44,-89.121 z m -39.92,0 c 0,44.742 15.17,82.91 45.49,114.703 30.33,31.66 66.94,47.488 109.84,47.488 42.82,0 79.35,-15.828 109.75,-47.488 30.33,-31.793 45.55,-69.961 45.55,-114.703 0,-44.75 -15.22,-83 -45.55,-114.719 -30.4,-31.68 -66.93,-47.582 -109.75,-47.582 -42.88,0 -79.51,15.902 -109.83,47.582 -30.33,31.719 -45.5,69.969 -45.5,114.719" /><path
             id="path118"
             style="fill:#100f0d;fill-opacity:1;fill-rule:nonzero;stroke:none"
             d="m 3109.39,485.391 22.61,-19.223 166.57,213.902 -22.63,19.2 -166.55,-213.879" /></g></g></g></g></svg>